<mxfile host="app.diagrams.net" modified="2021-12-29T13:08:47.697Z" agent="5.0 (Windows)" etag="4IAP2O6ZzpjWVOALVwnY" version="16.1.0" type="github">
  <diagram id="C5RBs43oDa-KdzZeNtuy" name="Page-1">
    <mxGraphModel dx="2143" dy="1195" grid="1" gridSize="10" guides="1" tooltips="1" connect="1" arrows="1" fold="1" page="1" pageScale="1" pageWidth="1654" pageHeight="1169" background="#F1FAEE" math="0" shadow="0">
      <root>
        <mxCell id="WIyWlLk6GJQsqaUBKTNV-0" />
        <mxCell id="WIyWlLk6GJQsqaUBKTNV-1" parent="WIyWlLk6GJQsqaUBKTNV-0" />
        <mxCell id="AX2P9v-LNy21JHfI5INp-10" value="category" style="swimlane;fontStyle=0;childLayout=stackLayout;horizontal=1;startSize=26;fillColor=#cdeb8b;horizontalStack=0;resizeParent=1;resizeParentMax=0;resizeLast=0;collapsible=1;marginBottom=0;strokeColor=#36393d;rounded=1;" vertex="1" parent="WIyWlLk6GJQsqaUBKTNV-1">
          <mxGeometry x="962.05" y="743" width="160" height="286" as="geometry" />
        </mxCell>
        <mxCell id="AX2P9v-LNy21JHfI5INp-11" value="title_fa" style="text;strokeColor=none;fillColor=none;align=left;verticalAlign=top;spacingLeft=4;spacingRight=4;overflow=hidden;rotatable=0;points=[[0,0.5],[1,0.5]];portConstraint=eastwest;rounded=1;fontColor=#1D3557;" vertex="1" parent="AX2P9v-LNy21JHfI5INp-10">
          <mxGeometry y="26" width="160" height="26" as="geometry" />
        </mxCell>
        <mxCell id="AX2P9v-LNy21JHfI5INp-12" value="title_en" style="text;strokeColor=none;fillColor=none;align=left;verticalAlign=top;spacingLeft=4;spacingRight=4;overflow=hidden;rotatable=0;points=[[0,0.5],[1,0.5]];portConstraint=eastwest;rounded=1;fontColor=#1D3557;" vertex="1" parent="AX2P9v-LNy21JHfI5INp-10">
          <mxGeometry y="52" width="160" height="26" as="geometry" />
        </mxCell>
        <mxCell id="AX2P9v-LNy21JHfI5INp-13" value="slug" style="text;strokeColor=none;fillColor=none;align=left;verticalAlign=top;spacingLeft=4;spacingRight=4;overflow=hidden;rotatable=0;points=[[0,0.5],[1,0.5]];portConstraint=eastwest;rounded=1;fontColor=#1D3557;" vertex="1" parent="AX2P9v-LNy21JHfI5INp-10">
          <mxGeometry y="78" width="160" height="26" as="geometry" />
        </mxCell>
        <mxCell id="rH6lZKR-5S6QWdBcWnSk-224" value="review" style="text;strokeColor=none;fillColor=none;align=left;verticalAlign=top;spacingLeft=4;spacingRight=4;overflow=hidden;rotatable=0;points=[[0,0.5],[1,0.5]];portConstraint=eastwest;rounded=1;fontColor=#1D3557;" vertex="1" parent="AX2P9v-LNy21JHfI5INp-10">
          <mxGeometry y="104" width="160" height="26" as="geometry" />
        </mxCell>
        <mxCell id="rH6lZKR-5S6QWdBcWnSk-42" value="section" style="text;strokeColor=none;fillColor=none;align=left;verticalAlign=top;spacingLeft=4;spacingRight=4;overflow=hidden;rotatable=0;points=[[0,0.5],[1,0.5]];portConstraint=eastwest;rounded=1;fontColor=#1D3557;" vertex="1" parent="AX2P9v-LNy21JHfI5INp-10">
          <mxGeometry y="130" width="160" height="26" as="geometry" />
        </mxCell>
        <mxCell id="rH6lZKR-5S6QWdBcWnSk-41" style="edgeStyle=orthogonalEdgeStyle;rounded=1;orthogonalLoop=1;jettySize=auto;html=1;exitX=1;exitY=0.5;exitDx=0;exitDy=0;entryX=0.5;entryY=0;entryDx=0;entryDy=0;strokeColor=#457B9D;fontColor=#1D3557;labelBackgroundColor=#F1FAEE;" edge="1" parent="AX2P9v-LNy21JHfI5INp-10" source="rH6lZKR-5S6QWdBcWnSk-38" target="AX2P9v-LNy21JHfI5INp-10">
          <mxGeometry relative="1" as="geometry">
            <Array as="points">
              <mxPoint x="170" y="247" />
              <mxPoint x="170" y="-20" />
              <mxPoint x="80" y="-20" />
            </Array>
          </mxGeometry>
        </mxCell>
        <mxCell id="rH6lZKR-5S6QWdBcWnSk-46" value="icon_file" style="text;strokeColor=none;fillColor=none;align=left;verticalAlign=top;spacingLeft=4;spacingRight=4;overflow=hidden;rotatable=0;points=[[0,0.5],[1,0.5]];portConstraint=eastwest;rounded=1;fontColor=#1D3557;" vertex="1" parent="AX2P9v-LNy21JHfI5INp-10">
          <mxGeometry y="156" width="160" height="26" as="geometry" />
        </mxCell>
        <mxCell id="rH6lZKR-5S6QWdBcWnSk-44" value="banner_file" style="text;strokeColor=none;fillColor=none;align=left;verticalAlign=top;spacingLeft=4;spacingRight=4;overflow=hidden;rotatable=0;points=[[0,0.5],[1,0.5]];portConstraint=eastwest;rounded=1;fontColor=#1D3557;" vertex="1" parent="AX2P9v-LNy21JHfI5INp-10">
          <mxGeometry y="182" width="160" height="26" as="geometry" />
        </mxCell>
        <mxCell id="rH6lZKR-5S6QWdBcWnSk-39" value="sub_categories" style="text;strokeColor=none;fillColor=none;align=left;verticalAlign=top;spacingLeft=4;spacingRight=4;overflow=hidden;rotatable=0;points=[[0,0.5],[1,0.5]];portConstraint=eastwest;rounded=1;fontColor=#1D3557;" vertex="1" parent="AX2P9v-LNy21JHfI5INp-10">
          <mxGeometry y="208" width="160" height="26" as="geometry" />
        </mxCell>
        <mxCell id="rH6lZKR-5S6QWdBcWnSk-38" value="parent_category" style="text;strokeColor=none;fillColor=none;align=left;verticalAlign=top;spacingLeft=4;spacingRight=4;overflow=hidden;rotatable=0;points=[[0,0.5],[1,0.5]];portConstraint=eastwest;rounded=1;fontColor=#1D3557;" vertex="1" parent="AX2P9v-LNy21JHfI5INp-10">
          <mxGeometry y="234" width="160" height="26" as="geometry" />
        </mxCell>
        <mxCell id="rH6lZKR-5S6QWdBcWnSk-104" value="products" style="text;strokeColor=none;fillColor=none;align=left;verticalAlign=top;spacingLeft=4;spacingRight=4;overflow=hidden;rotatable=0;points=[[0,0.5],[1,0.5]];portConstraint=eastwest;rounded=1;fontColor=#1D3557;" vertex="1" parent="AX2P9v-LNy21JHfI5INp-10">
          <mxGeometry y="260" width="160" height="26" as="geometry" />
        </mxCell>
        <mxCell id="rH6lZKR-5S6QWdBcWnSk-40" style="edgeStyle=orthogonalEdgeStyle;rounded=1;orthogonalLoop=1;jettySize=auto;html=1;entryX=0.5;entryY=0;entryDx=0;entryDy=0;strokeColor=#457B9D;fontColor=#1D3557;labelBackgroundColor=#F1FAEE;" edge="1" parent="AX2P9v-LNy21JHfI5INp-10" target="AX2P9v-LNy21JHfI5INp-10">
          <mxGeometry relative="1" as="geometry">
            <mxPoint y="195" as="sourcePoint" />
            <Array as="points">
              <mxPoint x="-10" y="195" />
              <mxPoint x="-10" y="-20" />
              <mxPoint x="80" y="-20" />
            </Array>
          </mxGeometry>
        </mxCell>
        <mxCell id="rH6lZKR-5S6QWdBcWnSk-235" style="edgeStyle=orthogonalEdgeStyle;rounded=1;orthogonalLoop=1;jettySize=auto;html=1;exitX=0;exitY=0.5;exitDx=0;exitDy=0;entryX=0.5;entryY=0;entryDx=0;entryDy=0;startArrow=none;startFill=0;endArrow=classic;endFill=1;strokeColor=#457B9D;fontColor=#1D3557;labelBackgroundColor=#F1FAEE;" edge="1" parent="WIyWlLk6GJQsqaUBKTNV-1" source="AX2P9v-LNy21JHfI5INp-16" target="AX2P9v-LNy21JHfI5INp-2">
          <mxGeometry relative="1" as="geometry">
            <Array as="points">
              <mxPoint x="315.05" y="890" />
              <mxPoint x="315.05" y="527" />
              <mxPoint x="622.05" y="527" />
            </Array>
          </mxGeometry>
        </mxCell>
        <mxCell id="AX2P9v-LNy21JHfI5INp-14" value="comment" style="swimlane;fontStyle=0;childLayout=stackLayout;horizontal=1;startSize=26;fillColor=#cdeb8b;horizontalStack=0;resizeParent=1;resizeParentMax=0;resizeLast=0;collapsible=1;marginBottom=0;strokeColor=#36393d;rounded=1;" vertex="1" parent="WIyWlLk6GJQsqaUBKTNV-1">
          <mxGeometry x="342.05" y="747" width="160" height="208" as="geometry" />
        </mxCell>
        <mxCell id="AX2P9v-LNy21JHfI5INp-15" value="review" style="text;strokeColor=none;fillColor=none;align=left;verticalAlign=top;spacingLeft=4;spacingRight=4;overflow=hidden;rotatable=0;points=[[0,0.5],[1,0.5]];portConstraint=eastwest;rounded=1;fontColor=#1D3557;" vertex="1" parent="AX2P9v-LNy21JHfI5INp-14">
          <mxGeometry y="26" width="160" height="26" as="geometry" />
        </mxCell>
        <mxCell id="rH6lZKR-5S6QWdBcWnSk-262" value="advantages" style="text;strokeColor=none;fillColor=none;align=left;verticalAlign=top;spacingLeft=4;spacingRight=4;overflow=hidden;rotatable=0;points=[[0,0.5],[1,0.5]];portConstraint=eastwest;rounded=1;fontColor=#1D3557;" vertex="1" parent="AX2P9v-LNy21JHfI5INp-14">
          <mxGeometry y="52" width="160" height="26" as="geometry" />
        </mxCell>
        <mxCell id="rH6lZKR-5S6QWdBcWnSk-263" value="dis_advantages" style="text;strokeColor=none;fillColor=none;align=left;verticalAlign=top;spacingLeft=4;spacingRight=4;overflow=hidden;rotatable=0;points=[[0,0.5],[1,0.5]];portConstraint=eastwest;rounded=1;fontColor=#1D3557;" vertex="1" parent="AX2P9v-LNy21JHfI5INp-14">
          <mxGeometry y="78" width="160" height="26" as="geometry" />
        </mxCell>
        <mxCell id="rH6lZKR-5S6QWdBcWnSk-237" value="ratings" style="text;strokeColor=none;fillColor=none;align=left;verticalAlign=top;spacingLeft=4;spacingRight=4;overflow=hidden;rotatable=0;points=[[0,0.5],[1,0.5]];portConstraint=eastwest;rounded=1;fontColor=#1D3557;" vertex="1" parent="AX2P9v-LNy21JHfI5INp-14">
          <mxGeometry y="104" width="160" height="26" as="geometry" />
        </mxCell>
        <mxCell id="AX2P9v-LNy21JHfI5INp-16" value="product" style="text;strokeColor=none;fillColor=none;align=left;verticalAlign=top;spacingLeft=4;spacingRight=4;overflow=hidden;rotatable=0;points=[[0,0.5],[1,0.5]];portConstraint=eastwest;rounded=1;fontColor=#1D3557;" vertex="1" parent="AX2P9v-LNy21JHfI5INp-14">
          <mxGeometry y="130" width="160" height="26" as="geometry" />
        </mxCell>
        <mxCell id="AX2P9v-LNy21JHfI5INp-17" value="sku" style="text;strokeColor=none;fillColor=none;align=left;verticalAlign=top;spacingLeft=4;spacingRight=4;overflow=hidden;rotatable=0;points=[[0,0.5],[1,0.5]];portConstraint=eastwest;rounded=1;fontColor=#1D3557;" vertex="1" parent="AX2P9v-LNy21JHfI5INp-14">
          <mxGeometry y="156" width="160" height="26" as="geometry" />
        </mxCell>
        <mxCell id="rH6lZKR-5S6QWdBcWnSk-242" value="user" style="text;strokeColor=none;fillColor=none;align=left;verticalAlign=top;spacingLeft=4;spacingRight=4;overflow=hidden;rotatable=0;points=[[0,0.5],[1,0.5]];portConstraint=eastwest;rounded=1;fontColor=#1D3557;" vertex="1" parent="AX2P9v-LNy21JHfI5INp-14">
          <mxGeometry y="182" width="160" height="26" as="geometry" />
        </mxCell>
        <mxCell id="AX2P9v-LNy21JHfI5INp-18" value="brand" style="swimlane;fontStyle=0;childLayout=stackLayout;horizontal=1;startSize=26;fillColor=#cdeb8b;horizontalStack=0;resizeParent=1;resizeParentMax=0;resizeLast=0;collapsible=1;marginBottom=0;strokeColor=#36393d;rounded=1;" vertex="1" parent="WIyWlLk6GJQsqaUBKTNV-1">
          <mxGeometry x="762.05" y="743" width="160" height="208" as="geometry" />
        </mxCell>
        <mxCell id="AX2P9v-LNy21JHfI5INp-19" value="title_fa" style="text;strokeColor=none;fillColor=none;align=left;verticalAlign=top;spacingLeft=4;spacingRight=4;overflow=hidden;rotatable=0;points=[[0,0.5],[1,0.5]];portConstraint=eastwest;rounded=1;fontColor=#1D3557;" vertex="1" parent="AX2P9v-LNy21JHfI5INp-18">
          <mxGeometry y="26" width="160" height="26" as="geometry" />
        </mxCell>
        <mxCell id="AX2P9v-LNy21JHfI5INp-20" value="title_en" style="text;strokeColor=none;fillColor=none;align=left;verticalAlign=top;spacingLeft=4;spacingRight=4;overflow=hidden;rotatable=0;points=[[0,0.5],[1,0.5]];portConstraint=eastwest;rounded=1;fontColor=#1D3557;" vertex="1" parent="AX2P9v-LNy21JHfI5INp-18">
          <mxGeometry y="52" width="160" height="26" as="geometry" />
        </mxCell>
        <mxCell id="AX2P9v-LNy21JHfI5INp-21" value="slug" style="text;strokeColor=none;fillColor=none;align=left;verticalAlign=top;spacingLeft=4;spacingRight=4;overflow=hidden;rotatable=0;points=[[0,0.5],[1,0.5]];portConstraint=eastwest;rounded=1;fontColor=#1D3557;" vertex="1" parent="AX2P9v-LNy21JHfI5INp-18">
          <mxGeometry y="78" width="160" height="26" as="geometry" />
        </mxCell>
        <mxCell id="rH6lZKR-5S6QWdBcWnSk-47" value="logo_file" style="text;strokeColor=none;fillColor=none;align=left;verticalAlign=top;spacingLeft=4;spacingRight=4;overflow=hidden;rotatable=0;points=[[0,0.5],[1,0.5]];portConstraint=eastwest;rounded=1;fontColor=#1D3557;" vertex="1" parent="AX2P9v-LNy21JHfI5INp-18">
          <mxGeometry y="104" width="160" height="26" as="geometry" />
        </mxCell>
        <mxCell id="rH6lZKR-5S6QWdBcWnSk-226" value="review" style="text;strokeColor=none;fillColor=none;align=left;verticalAlign=top;spacingLeft=4;spacingRight=4;overflow=hidden;rotatable=0;points=[[0,0.5],[1,0.5]];portConstraint=eastwest;rounded=1;fontColor=#1D3557;" vertex="1" parent="AX2P9v-LNy21JHfI5INp-18">
          <mxGeometry y="130" width="160" height="26" as="geometry" />
        </mxCell>
        <mxCell id="rH6lZKR-5S6QWdBcWnSk-43" value="section" style="text;strokeColor=none;fillColor=none;align=left;verticalAlign=top;spacingLeft=4;spacingRight=4;overflow=hidden;rotatable=0;points=[[0,0.5],[1,0.5]];portConstraint=eastwest;rounded=1;fontColor=#1D3557;" vertex="1" parent="AX2P9v-LNy21JHfI5INp-18">
          <mxGeometry y="156" width="160" height="26" as="geometry" />
        </mxCell>
        <mxCell id="rH6lZKR-5S6QWdBcWnSk-169" value="products" style="text;strokeColor=none;fillColor=none;align=left;verticalAlign=top;spacingLeft=4;spacingRight=4;overflow=hidden;rotatable=0;points=[[0,0.5],[1,0.5]];portConstraint=eastwest;rounded=1;fontColor=#1D3557;" vertex="1" parent="AX2P9v-LNy21JHfI5INp-18">
          <mxGeometry y="182" width="160" height="26" as="geometry" />
        </mxCell>
        <mxCell id="AX2P9v-LNy21JHfI5INp-22" value="address" style="swimlane;fontStyle=0;childLayout=stackLayout;horizontal=1;startSize=26;fillColor=#cdeb8b;horizontalStack=0;resizeParent=1;resizeParentMax=0;resizeLast=0;collapsible=1;marginBottom=0;strokeColor=#36393d;rounded=1;" vertex="1" parent="WIyWlLk6GJQsqaUBKTNV-1">
          <mxGeometry x="352.05" y="107" width="160" height="312" as="geometry" />
        </mxCell>
        <mxCell id="AX2P9v-LNy21JHfI5INp-23" value="lat" style="text;strokeColor=none;fillColor=none;align=left;verticalAlign=top;spacingLeft=4;spacingRight=4;overflow=hidden;rotatable=0;points=[[0,0.5],[1,0.5]];portConstraint=eastwest;rounded=1;fontColor=#1D3557;" vertex="1" parent="AX2P9v-LNy21JHfI5INp-22">
          <mxGeometry y="26" width="160" height="26" as="geometry" />
        </mxCell>
        <mxCell id="AX2P9v-LNy21JHfI5INp-24" value="lng" style="text;strokeColor=none;fillColor=none;align=left;verticalAlign=top;spacingLeft=4;spacingRight=4;overflow=hidden;rotatable=0;points=[[0,0.5],[1,0.5]];portConstraint=eastwest;rounded=1;fontColor=#1D3557;" vertex="1" parent="AX2P9v-LNy21JHfI5INp-22">
          <mxGeometry y="52" width="160" height="26" as="geometry" />
        </mxCell>
        <mxCell id="AX2P9v-LNy21JHfI5INp-25" value="original" style="text;strokeColor=none;fillColor=none;align=left;verticalAlign=top;spacingLeft=4;spacingRight=4;overflow=hidden;rotatable=0;points=[[0,0.5],[1,0.5]];portConstraint=eastwest;rounded=1;fontColor=#1D3557;" vertex="1" parent="AX2P9v-LNy21JHfI5INp-22">
          <mxGeometry y="78" width="160" height="26" as="geometry" />
        </mxCell>
        <mxCell id="rH6lZKR-5S6QWdBcWnSk-69" value="post_code" style="text;strokeColor=none;fillColor=none;align=left;verticalAlign=top;spacingLeft=4;spacingRight=4;overflow=hidden;rotatable=0;points=[[0,0.5],[1,0.5]];portConstraint=eastwest;rounded=1;fontColor=#1D3557;" vertex="1" parent="AX2P9v-LNy21JHfI5INp-22">
          <mxGeometry y="104" width="160" height="26" as="geometry" />
        </mxCell>
        <mxCell id="rH6lZKR-5S6QWdBcWnSk-71" value="bld_num" style="text;strokeColor=none;fillColor=none;align=left;verticalAlign=top;spacingLeft=4;spacingRight=4;overflow=hidden;rotatable=0;points=[[0,0.5],[1,0.5]];portConstraint=eastwest;rounded=1;fontColor=#1D3557;" vertex="1" parent="AX2P9v-LNy21JHfI5INp-22">
          <mxGeometry y="130" width="160" height="26" as="geometry" />
        </mxCell>
        <mxCell id="rH6lZKR-5S6QWdBcWnSk-70" value="apt_id" style="text;strokeColor=none;fillColor=none;align=left;verticalAlign=top;spacingLeft=4;spacingRight=4;overflow=hidden;rotatable=0;points=[[0,0.5],[1,0.5]];portConstraint=eastwest;rounded=1;fontColor=#1D3557;" vertex="1" parent="AX2P9v-LNy21JHfI5INp-22">
          <mxGeometry y="156" width="160" height="26" as="geometry" />
        </mxCell>
        <mxCell id="rH6lZKR-5S6QWdBcWnSk-73" value="has_receiver" style="text;strokeColor=none;fillColor=none;align=left;verticalAlign=top;spacingLeft=4;spacingRight=4;overflow=hidden;rotatable=0;points=[[0,0.5],[1,0.5]];portConstraint=eastwest;rounded=1;fontColor=#1D3557;" vertex="1" parent="AX2P9v-LNy21JHfI5INp-22">
          <mxGeometry y="182" width="160" height="26" as="geometry" />
        </mxCell>
        <mxCell id="rH6lZKR-5S6QWdBcWnSk-75" value="receiver_phone" style="text;strokeColor=none;fillColor=none;align=left;verticalAlign=top;spacingLeft=4;spacingRight=4;overflow=hidden;rotatable=0;points=[[0,0.5],[1,0.5]];portConstraint=eastwest;rounded=1;fontColor=#1D3557;" vertex="1" parent="AX2P9v-LNy21JHfI5INp-22">
          <mxGeometry y="208" width="160" height="26" as="geometry" />
        </mxCell>
        <mxCell id="rH6lZKR-5S6QWdBcWnSk-72" value="receiver_first_name" style="text;strokeColor=none;fillColor=none;align=left;verticalAlign=top;spacingLeft=4;spacingRight=4;overflow=hidden;rotatable=0;points=[[0,0.5],[1,0.5]];portConstraint=eastwest;rounded=1;fontColor=#1D3557;" vertex="1" parent="AX2P9v-LNy21JHfI5INp-22">
          <mxGeometry y="234" width="160" height="26" as="geometry" />
        </mxCell>
        <mxCell id="rH6lZKR-5S6QWdBcWnSk-74" value="receiver_last_name" style="text;strokeColor=none;fillColor=none;align=left;verticalAlign=top;spacingLeft=4;spacingRight=4;overflow=hidden;rotatable=0;points=[[0,0.5],[1,0.5]];portConstraint=eastwest;rounded=1;fontColor=#1D3557;" vertex="1" parent="AX2P9v-LNy21JHfI5INp-22">
          <mxGeometry y="260" width="160" height="26" as="geometry" />
        </mxCell>
        <mxCell id="rH6lZKR-5S6QWdBcWnSk-132" value="user" style="text;strokeColor=none;fillColor=none;align=left;verticalAlign=top;spacingLeft=4;spacingRight=4;overflow=hidden;rotatable=0;points=[[0,0.5],[1,0.5]];portConstraint=eastwest;rounded=1;fontColor=#1D3557;" vertex="1" parent="AX2P9v-LNy21JHfI5INp-22">
          <mxGeometry y="286" width="160" height="26" as="geometry" />
        </mxCell>
        <mxCell id="AX2P9v-LNy21JHfI5INp-26" value="order" style="swimlane;fontStyle=0;childLayout=stackLayout;horizontal=1;startSize=26;fillColor=#cdeb8b;horizontalStack=0;resizeParent=1;resizeParentMax=0;resizeLast=0;collapsible=1;marginBottom=0;strokeColor=#36393d;rounded=1;" vertex="1" parent="WIyWlLk6GJQsqaUBKTNV-1">
          <mxGeometry x="962.05" y="107" width="160" height="338" as="geometry" />
        </mxCell>
        <mxCell id="rH6lZKR-5S6QWdBcWnSk-328" value="status" style="text;strokeColor=none;fillColor=none;align=left;verticalAlign=top;spacingLeft=4;spacingRight=4;overflow=hidden;rotatable=0;points=[[0,0.5],[1,0.5]];portConstraint=eastwest;rounded=1;fontColor=#1D3557;" vertex="1" parent="AX2P9v-LNy21JHfI5INp-26">
          <mxGeometry y="26" width="160" height="26" as="geometry" />
        </mxCell>
        <mxCell id="AX2P9v-LNy21JHfI5INp-27" value="user" style="text;strokeColor=none;fillColor=none;align=left;verticalAlign=top;spacingLeft=4;spacingRight=4;overflow=hidden;rotatable=0;points=[[0,0.5],[1,0.5]];portConstraint=eastwest;rounded=1;fontColor=#1D3557;" vertex="1" parent="AX2P9v-LNy21JHfI5INp-26">
          <mxGeometry y="52" width="160" height="26" as="geometry" />
        </mxCell>
        <mxCell id="rH6lZKR-5S6QWdBcWnSk-111" value="items" style="text;strokeColor=none;fillColor=none;align=left;verticalAlign=top;spacingLeft=4;spacingRight=4;overflow=hidden;rotatable=0;points=[[0,0.5],[1,0.5]];portConstraint=eastwest;rounded=1;fontColor=#1D3557;" vertex="1" parent="AX2P9v-LNy21JHfI5INp-26">
          <mxGeometry y="78" width="160" height="26" as="geometry" />
        </mxCell>
        <mxCell id="rH6lZKR-5S6QWdBcWnSk-338" value="logs" style="text;strokeColor=none;fillColor=none;align=left;verticalAlign=top;spacingLeft=4;spacingRight=4;overflow=hidden;rotatable=0;points=[[0,0.5],[1,0.5]];portConstraint=eastwest;rounded=1;fontColor=#1D3557;" vertex="1" parent="AX2P9v-LNy21JHfI5INp-26">
          <mxGeometry y="104" width="160" height="26" as="geometry" />
        </mxCell>
        <mxCell id="AX2P9v-LNy21JHfI5INp-28" value="coupon" style="text;strokeColor=none;fillColor=none;align=left;verticalAlign=top;spacingLeft=4;spacingRight=4;overflow=hidden;rotatable=0;points=[[0,0.5],[1,0.5]];portConstraint=eastwest;rounded=1;fontColor=#1D3557;" vertex="1" parent="AX2P9v-LNy21JHfI5INp-26">
          <mxGeometry y="130" width="160" height="26" as="geometry" />
        </mxCell>
        <mxCell id="rH6lZKR-5S6QWdBcWnSk-325" value="payment" style="text;strokeColor=none;fillColor=none;align=left;verticalAlign=top;spacingLeft=4;spacingRight=4;overflow=hidden;rotatable=0;points=[[0,0.5],[1,0.5]];portConstraint=eastwest;rounded=1;fontColor=#1D3557;" vertex="1" parent="AX2P9v-LNy21JHfI5INp-26">
          <mxGeometry y="156" width="160" height="26" as="geometry" />
        </mxCell>
        <mxCell id="rH6lZKR-5S6QWdBcWnSk-324" value="shipping" style="text;strokeColor=none;fillColor=none;align=left;verticalAlign=top;spacingLeft=4;spacingRight=4;overflow=hidden;rotatable=0;points=[[0,0.5],[1,0.5]];portConstraint=eastwest;rounded=1;fontColor=#1D3557;" vertex="1" parent="AX2P9v-LNy21JHfI5INp-26">
          <mxGeometry y="182" width="160" height="26" as="geometry" />
        </mxCell>
        <mxCell id="rH6lZKR-5S6QWdBcWnSk-308" value="num_sold" style="text;strokeColor=none;fillColor=none;align=left;verticalAlign=top;spacingLeft=4;spacingRight=4;overflow=hidden;rotatable=0;points=[[0,0.5],[1,0.5]];portConstraint=eastwest;rounded=1;fontColor=#1D3557;" vertex="1" parent="AX2P9v-LNy21JHfI5INp-26">
          <mxGeometry y="208" width="160" height="26" as="geometry" />
        </mxCell>
        <mxCell id="AX2P9v-LNy21JHfI5INp-29" value="total" style="text;strokeColor=none;fillColor=none;align=left;verticalAlign=top;spacingLeft=4;spacingRight=4;overflow=hidden;rotatable=0;points=[[0,0.5],[1,0.5]];portConstraint=eastwest;rounded=1;fontColor=#1D3557;" vertex="1" parent="AX2P9v-LNy21JHfI5INp-26">
          <mxGeometry y="234" width="160" height="26" as="geometry" />
        </mxCell>
        <mxCell id="rH6lZKR-5S6QWdBcWnSk-323" value="shipping_total" style="text;strokeColor=none;fillColor=none;align=left;verticalAlign=top;spacingLeft=4;spacingRight=4;overflow=hidden;rotatable=0;points=[[0,0.5],[1,0.5]];portConstraint=eastwest;rounded=1;fontColor=#1D3557;" vertex="1" parent="AX2P9v-LNy21JHfI5INp-26">
          <mxGeometry y="260" width="160" height="26" as="geometry" />
        </mxCell>
        <mxCell id="rH6lZKR-5S6QWdBcWnSk-310" value="net_total" style="text;strokeColor=none;fillColor=none;align=left;verticalAlign=top;spacingLeft=4;spacingRight=4;overflow=hidden;rotatable=0;points=[[0,0.5],[1,0.5]];portConstraint=eastwest;rounded=1;fontColor=#1D3557;" vertex="1" parent="AX2P9v-LNy21JHfI5INp-26">
          <mxGeometry y="286" width="160" height="26" as="geometry" />
        </mxCell>
        <mxCell id="rH6lZKR-5S6QWdBcWnSk-322" value="revenue_total" style="text;strokeColor=none;fillColor=none;align=left;verticalAlign=top;spacingLeft=4;spacingRight=4;overflow=hidden;rotatable=0;points=[[0,0.5],[1,0.5]];portConstraint=eastwest;rounded=1;fontColor=#1D3557;" vertex="1" parent="AX2P9v-LNy21JHfI5INp-26">
          <mxGeometry y="312" width="160" height="26" as="geometry" />
        </mxCell>
        <mxCell id="AX2P9v-LNy21JHfI5INp-30" value="sku" style="swimlane;fontStyle=0;childLayout=stackLayout;horizontal=1;startSize=26;fillColor=#cdeb8b;horizontalStack=0;resizeParent=1;resizeParentMax=0;resizeLast=0;collapsible=1;marginBottom=0;strokeColor=#36393d;rounded=1;" vertex="1" parent="WIyWlLk6GJQsqaUBKTNV-1">
          <mxGeometry x="342.05" y="564.9599999999999" width="160" height="156" as="geometry" />
        </mxCell>
        <mxCell id="AX2P9v-LNy21JHfI5INp-31" value="key" style="text;strokeColor=none;fillColor=none;align=left;verticalAlign=top;spacingLeft=4;spacingRight=4;overflow=hidden;rotatable=0;points=[[0,0.5],[1,0.5]];portConstraint=eastwest;rounded=1;fontColor=#1D3557;" vertex="1" parent="AX2P9v-LNy21JHfI5INp-30">
          <mxGeometry y="26" width="160" height="26" as="geometry" />
        </mxCell>
        <mxCell id="AX2P9v-LNy21JHfI5INp-32" value="label" style="text;strokeColor=none;fillColor=none;align=left;verticalAlign=top;spacingLeft=4;spacingRight=4;overflow=hidden;rotatable=0;points=[[0,0.5],[1,0.5]];portConstraint=eastwest;rounded=1;fontColor=#1D3557;" vertex="1" parent="AX2P9v-LNy21JHfI5INp-30">
          <mxGeometry y="52" width="160" height="26" as="geometry" />
        </mxCell>
        <mxCell id="rH6lZKR-5S6QWdBcWnSk-26" value="details" style="text;strokeColor=none;fillColor=none;align=left;verticalAlign=top;spacingLeft=4;spacingRight=4;overflow=hidden;rotatable=0;points=[[0,0.5],[1,0.5]];portConstraint=eastwest;rounded=1;fontColor=#1D3557;" vertex="1" parent="AX2P9v-LNy21JHfI5INp-30">
          <mxGeometry y="78" width="160" height="26" as="geometry" />
        </mxCell>
        <mxCell id="rH6lZKR-5S6QWdBcWnSk-32" value="product" style="text;strokeColor=none;fillColor=none;align=left;verticalAlign=top;spacingLeft=4;spacingRight=4;overflow=hidden;rotatable=0;points=[[0,0.5],[1,0.5]];portConstraint=eastwest;rounded=1;fontColor=#1D3557;" vertex="1" parent="AX2P9v-LNy21JHfI5INp-30">
          <mxGeometry y="104" width="160" height="26" as="geometry" />
        </mxCell>
        <mxCell id="AX2P9v-LNy21JHfI5INp-33" value="related_image_file" style="text;strokeColor=none;fillColor=none;align=left;verticalAlign=top;spacingLeft=4;spacingRight=4;overflow=hidden;rotatable=0;points=[[0,0.5],[1,0.5]];portConstraint=eastwest;rounded=1;fontColor=#1D3557;" vertex="1" parent="AX2P9v-LNy21JHfI5INp-30">
          <mxGeometry y="130" width="160" height="26" as="geometry" />
        </mxCell>
        <mxCell id="rH6lZKR-5S6QWdBcWnSk-4" value="cart_item" style="swimlane;fontStyle=0;childLayout=stackLayout;horizontal=1;startSize=26;horizontalStack=0;resizeParent=1;resizeParentMax=0;resizeLast=0;collapsible=1;marginBottom=0;fillColor=#cdeb8b;strokeColor=#36393d;rounded=1;" vertex="1" parent="WIyWlLk6GJQsqaUBKTNV-1">
          <mxGeometry x="742.05" y="107" width="160" height="104" as="geometry" />
        </mxCell>
        <mxCell id="rH6lZKR-5S6QWdBcWnSk-5" value="user" style="text;strokeColor=none;fillColor=none;align=left;verticalAlign=top;spacingLeft=4;spacingRight=4;overflow=hidden;rotatable=0;points=[[0,0.5],[1,0.5]];portConstraint=eastwest;rounded=1;fontColor=#1D3557;" vertex="1" parent="rH6lZKR-5S6QWdBcWnSk-4">
          <mxGeometry y="26" width="160" height="26" as="geometry" />
        </mxCell>
        <mxCell id="rH6lZKR-5S6QWdBcWnSk-6" value="sku" style="text;strokeColor=none;fillColor=none;align=left;verticalAlign=top;spacingLeft=4;spacingRight=4;overflow=hidden;rotatable=0;points=[[0,0.5],[1,0.5]];portConstraint=eastwest;rounded=1;fontColor=#1D3557;" vertex="1" parent="rH6lZKR-5S6QWdBcWnSk-4">
          <mxGeometry y="52" width="160" height="26" as="geometry" />
        </mxCell>
        <mxCell id="rH6lZKR-5S6QWdBcWnSk-7" value="count" style="text;strokeColor=none;fillColor=none;align=left;verticalAlign=top;spacingLeft=4;spacingRight=4;overflow=hidden;rotatable=0;points=[[0,0.5],[1,0.5]];portConstraint=eastwest;rounded=1;fontColor=#1D3557;" vertex="1" parent="rH6lZKR-5S6QWdBcWnSk-4">
          <mxGeometry y="78" width="160" height="26" as="geometry" />
        </mxCell>
        <mxCell id="AX2P9v-LNy21JHfI5INp-2" value="product" style="swimlane;fontStyle=0;childLayout=stackLayout;horizontal=1;startSize=26;fillColor=#cdeb8b;horizontalStack=0;resizeParent=1;resizeParentMax=0;resizeLast=0;collapsible=1;marginBottom=0;strokeColor=#36393d;rounded=1;" vertex="1" parent="WIyWlLk6GJQsqaUBKTNV-1">
          <mxGeometry x="542.05" y="564.9599999999999" width="160" height="338" as="geometry">
            <mxRectangle x="120" y="200" width="70" height="26" as="alternateBounds" />
          </mxGeometry>
        </mxCell>
        <mxCell id="AX2P9v-LNy21JHfI5INp-3" value="title_fa" style="text;strokeColor=none;fillColor=none;align=left;verticalAlign=top;spacingLeft=4;spacingRight=4;overflow=hidden;rotatable=0;points=[[0,0.5],[1,0.5]];portConstraint=eastwest;rounded=1;fontColor=#1D3557;" vertex="1" parent="AX2P9v-LNy21JHfI5INp-2">
          <mxGeometry y="26" width="160" height="26" as="geometry" />
        </mxCell>
        <mxCell id="AX2P9v-LNy21JHfI5INp-4" value="title_en" style="text;strokeColor=none;fillColor=none;align=left;verticalAlign=top;spacingLeft=4;spacingRight=4;overflow=hidden;rotatable=0;points=[[0,0.5],[1,0.5]];portConstraint=eastwest;rounded=1;fontColor=#1D3557;" vertex="1" parent="AX2P9v-LNy21JHfI5INp-2">
          <mxGeometry y="52" width="160" height="26" as="geometry" />
        </mxCell>
        <mxCell id="AX2P9v-LNy21JHfI5INp-5" value="slug" style="text;strokeColor=none;fillColor=none;align=left;verticalAlign=top;spacingLeft=4;spacingRight=4;overflow=hidden;rotatable=0;points=[[0,0.5],[1,0.5]];portConstraint=eastwest;rounded=1;fontColor=#1D3557;" vertex="1" parent="AX2P9v-LNy21JHfI5INp-2">
          <mxGeometry y="78" width="160" height="26" as="geometry" />
        </mxCell>
        <mxCell id="rH6lZKR-5S6QWdBcWnSk-21" value="is_fake" style="text;strokeColor=none;fillColor=none;align=left;verticalAlign=top;spacingLeft=4;spacingRight=4;overflow=hidden;rotatable=0;points=[[0,0.5],[1,0.5]];portConstraint=eastwest;rounded=1;fontColor=#1D3557;" vertex="1" parent="AX2P9v-LNy21JHfI5INp-2">
          <mxGeometry y="104" width="160" height="26" as="geometry" />
        </mxCell>
        <mxCell id="rH6lZKR-5S6QWdBcWnSk-45" value="image_files" style="text;strokeColor=none;fillColor=none;align=left;verticalAlign=top;spacingLeft=4;spacingRight=4;overflow=hidden;rotatable=0;points=[[0,0.5],[1,0.5]];portConstraint=eastwest;rounded=1;fontColor=#1D3557;" vertex="1" parent="AX2P9v-LNy21JHfI5INp-2">
          <mxGeometry y="130" width="160" height="26" as="geometry" />
        </mxCell>
        <mxCell id="rH6lZKR-5S6QWdBcWnSk-16" value="review" style="text;strokeColor=none;fillColor=none;align=left;verticalAlign=top;spacingLeft=4;spacingRight=4;overflow=hidden;rotatable=0;points=[[0,0.5],[1,0.5]];portConstraint=eastwest;rounded=1;fontColor=#1D3557;" vertex="1" parent="AX2P9v-LNy21JHfI5INp-2">
          <mxGeometry y="156" width="160" height="26" as="geometry" />
        </mxCell>
        <mxCell id="rH6lZKR-5S6QWdBcWnSk-125" value="attribute_groups" style="text;strokeColor=none;fillColor=none;align=left;verticalAlign=top;spacingLeft=4;spacingRight=4;overflow=hidden;rotatable=0;points=[[0,0.5],[1,0.5]];portConstraint=eastwest;rounded=1;fontColor=#1D3557;" vertex="1" parent="AX2P9v-LNy21JHfI5INp-2">
          <mxGeometry y="182" width="160" height="26" as="geometry" />
        </mxCell>
        <mxCell id="rH6lZKR-5S6QWdBcWnSk-23" style="edgeStyle=orthogonalEdgeStyle;rounded=1;orthogonalLoop=1;jettySize=auto;html=1;entryX=0.5;entryY=0;entryDx=0;entryDy=0;exitX=0;exitY=0.5;exitDx=0;exitDy=0;strokeColor=#457B9D;fontColor=#1D3557;labelBackgroundColor=#F1FAEE;" edge="1" parent="AX2P9v-LNy21JHfI5INp-2" source="rH6lZKR-5S6QWdBcWnSk-22" target="AX2P9v-LNy21JHfI5INp-2">
          <mxGeometry relative="1" as="geometry">
            <Array as="points">
              <mxPoint x="-10" y="325" />
              <mxPoint x="-10" y="-18" />
              <mxPoint x="80" y="-18" />
            </Array>
          </mxGeometry>
        </mxCell>
        <mxCell id="rH6lZKR-5S6QWdBcWnSk-24" value="brand" style="text;strokeColor=none;fillColor=none;align=left;verticalAlign=top;spacingLeft=4;spacingRight=4;overflow=hidden;rotatable=0;points=[[0,0.5],[1,0.5]];portConstraint=eastwest;rounded=1;fontColor=#1D3557;" vertex="1" parent="AX2P9v-LNy21JHfI5INp-2">
          <mxGeometry y="208" width="160" height="26" as="geometry" />
        </mxCell>
        <mxCell id="rH6lZKR-5S6QWdBcWnSk-25" value="category" style="text;strokeColor=none;fillColor=none;align=left;verticalAlign=top;spacingLeft=4;spacingRight=4;overflow=hidden;rotatable=0;points=[[0,0.5],[1,0.5]];portConstraint=eastwest;rounded=1;fontColor=#1D3557;" vertex="1" parent="AX2P9v-LNy21JHfI5INp-2">
          <mxGeometry y="234" width="160" height="26" as="geometry" />
        </mxCell>
        <mxCell id="rH6lZKR-5S6QWdBcWnSk-156" value="skus" style="text;strokeColor=none;fillColor=none;align=left;verticalAlign=top;spacingLeft=4;spacingRight=4;overflow=hidden;rotatable=0;points=[[0,0.5],[1,0.5]];portConstraint=eastwest;rounded=1;fontColor=#1D3557;" vertex="1" parent="AX2P9v-LNy21JHfI5INp-2">
          <mxGeometry y="260" width="160" height="26" as="geometry" />
        </mxCell>
        <mxCell id="rH6lZKR-5S6QWdBcWnSk-234" value="comments" style="text;strokeColor=none;fillColor=none;align=left;verticalAlign=top;spacingLeft=4;spacingRight=4;overflow=hidden;rotatable=0;points=[[0,0.5],[1,0.5]];portConstraint=eastwest;rounded=1;fontColor=#1D3557;" vertex="1" parent="AX2P9v-LNy21JHfI5INp-2">
          <mxGeometry y="286" width="160" height="26" as="geometry" />
        </mxCell>
        <mxCell id="rH6lZKR-5S6QWdBcWnSk-22" value="related_products" style="text;strokeColor=none;fillColor=none;align=left;verticalAlign=top;spacingLeft=4;spacingRight=4;overflow=hidden;rotatable=0;points=[[0,0.5],[1,0.5]];portConstraint=eastwest;rounded=1;fontColor=#1D3557;" vertex="1" parent="AX2P9v-LNy21JHfI5INp-2">
          <mxGeometry y="312" width="160" height="26" as="geometry" />
        </mxCell>
        <mxCell id="rH6lZKR-5S6QWdBcWnSk-17" value="file" style="swimlane;fontStyle=0;childLayout=stackLayout;horizontal=1;startSize=26;fillColor=#cdeb8b;horizontalStack=0;resizeParent=1;resizeParentMax=0;resizeLast=0;collapsible=1;marginBottom=0;strokeColor=#36393d;rounded=1;" vertex="1" parent="WIyWlLk6GJQsqaUBKTNV-1">
          <mxGeometry x="1345.05" y="107" width="160" height="182" as="geometry" />
        </mxCell>
        <mxCell id="rH6lZKR-5S6QWdBcWnSk-18" value="label" style="text;strokeColor=none;fillColor=none;align=left;verticalAlign=top;spacingLeft=4;spacingRight=4;overflow=hidden;rotatable=0;points=[[0,0.5],[1,0.5]];portConstraint=eastwest;rounded=1;fontColor=#1D3557;" vertex="1" parent="rH6lZKR-5S6QWdBcWnSk-17">
          <mxGeometry y="26" width="160" height="26" as="geometry" />
        </mxCell>
        <mxCell id="rH6lZKR-5S6QWdBcWnSk-35" value="type" style="text;strokeColor=none;fillColor=none;align=left;verticalAlign=top;spacingLeft=4;spacingRight=4;overflow=hidden;rotatable=0;points=[[0,0.5],[1,0.5]];portConstraint=eastwest;rounded=1;fontColor=#1D3557;" vertex="1" parent="rH6lZKR-5S6QWdBcWnSk-17">
          <mxGeometry y="52" width="160" height="26" as="geometry" />
        </mxCell>
        <mxCell id="rH6lZKR-5S6QWdBcWnSk-36" value="mem" style="text;strokeColor=none;fillColor=none;align=left;verticalAlign=top;spacingLeft=4;spacingRight=4;overflow=hidden;rotatable=0;points=[[0,0.5],[1,0.5]];portConstraint=eastwest;rounded=1;fontColor=#1D3557;" vertex="1" parent="rH6lZKR-5S6QWdBcWnSk-17">
          <mxGeometry y="78" width="160" height="26" as="geometry" />
        </mxCell>
        <mxCell id="rH6lZKR-5S6QWdBcWnSk-233" value="size" style="text;strokeColor=none;fillColor=none;align=left;verticalAlign=top;spacingLeft=4;spacingRight=4;overflow=hidden;rotatable=0;points=[[0,0.5],[1,0.5]];portConstraint=eastwest;rounded=1;fontColor=#1D3557;" vertex="1" parent="rH6lZKR-5S6QWdBcWnSk-17">
          <mxGeometry y="104" width="160" height="26" as="geometry" />
        </mxCell>
        <mxCell id="rH6lZKR-5S6QWdBcWnSk-19" value="alternative" style="text;strokeColor=none;fillColor=none;align=left;verticalAlign=top;spacingLeft=4;spacingRight=4;overflow=hidden;rotatable=0;points=[[0,0.5],[1,0.5]];portConstraint=eastwest;rounded=1;fontColor=#1D3557;" vertex="1" parent="rH6lZKR-5S6QWdBcWnSk-17">
          <mxGeometry y="130" width="160" height="26" as="geometry" />
        </mxCell>
        <mxCell id="rH6lZKR-5S6QWdBcWnSk-20" value="formats" style="text;strokeColor=none;fillColor=none;align=left;verticalAlign=top;spacingLeft=4;spacingRight=4;overflow=hidden;rotatable=0;points=[[0,0.5],[1,0.5]];portConstraint=eastwest;rounded=1;fontColor=#1D3557;" vertex="1" parent="rH6lZKR-5S6QWdBcWnSk-17">
          <mxGeometry y="156" width="160" height="26" as="geometry" />
        </mxCell>
        <mxCell id="rH6lZKR-5S6QWdBcWnSk-48" style="edgeStyle=orthogonalEdgeStyle;rounded=1;orthogonalLoop=1;jettySize=auto;html=1;exitX=1;exitY=0.5;exitDx=0;exitDy=0;entryX=0.5;entryY=0;entryDx=0;entryDy=0;strokeColor=#457B9D;fontColor=#1D3557;labelBackgroundColor=#F1FAEE;" edge="1" parent="WIyWlLk6GJQsqaUBKTNV-1" source="rH6lZKR-5S6QWdBcWnSk-24" target="AX2P9v-LNy21JHfI5INp-18">
          <mxGeometry relative="1" as="geometry">
            <Array as="points">
              <mxPoint x="732.05" y="786" />
              <mxPoint x="732.05" y="1057" />
              <mxPoint x="932.05" y="1057" />
              <mxPoint x="932.05" y="727" />
              <mxPoint x="842.05" y="727" />
            </Array>
          </mxGeometry>
        </mxCell>
        <mxCell id="rH6lZKR-5S6QWdBcWnSk-49" style="edgeStyle=orthogonalEdgeStyle;rounded=1;orthogonalLoop=1;jettySize=auto;html=1;exitX=1;exitY=0.5;exitDx=0;exitDy=0;entryX=0.5;entryY=0;entryDx=0;entryDy=0;strokeColor=#457B9D;fontColor=#1D3557;labelBackgroundColor=#F1FAEE;" edge="1" parent="WIyWlLk6GJQsqaUBKTNV-1" source="rH6lZKR-5S6QWdBcWnSk-25" target="AX2P9v-LNy21JHfI5INp-10">
          <mxGeometry relative="1" as="geometry">
            <mxPoint x="1041.05" y="256.96" as="targetPoint" />
            <Array as="points">
              <mxPoint x="725.05" y="812" />
              <mxPoint x="725.05" y="527" />
              <mxPoint x="1122.05" y="527" />
              <mxPoint x="1122.05" y="693" />
              <mxPoint x="1042.05" y="693" />
            </Array>
          </mxGeometry>
        </mxCell>
        <mxCell id="rH6lZKR-5S6QWdBcWnSk-87" style="edgeStyle=orthogonalEdgeStyle;rounded=1;orthogonalLoop=1;jettySize=auto;html=1;exitX=0;exitY=0.5;exitDx=0;exitDy=0;entryX=0.5;entryY=0;entryDx=0;entryDy=0;strokeColor=#457B9D;fontColor=#1D3557;labelBackgroundColor=#F1FAEE;" edge="1" parent="WIyWlLk6GJQsqaUBKTNV-1" source="rH6lZKR-5S6QWdBcWnSk-5" target="AX2P9v-LNy21JHfI5INp-6">
          <mxGeometry relative="1" as="geometry">
            <mxPoint x="742.05" y="140" as="sourcePoint" />
            <mxPoint x="622.05" y="101" as="targetPoint" />
            <Array as="points">
              <mxPoint x="712.05" y="146" />
              <mxPoint x="712.05" y="77" />
              <mxPoint x="622.05" y="77" />
            </Array>
          </mxGeometry>
        </mxCell>
        <mxCell id="rH6lZKR-5S6QWdBcWnSk-89" value="sku_detail" style="swimlane;fontStyle=0;childLayout=stackLayout;horizontal=1;startSize=26;fillColor=#cdeb8b;horizontalStack=0;resizeParent=1;resizeParentMax=0;resizeLast=0;collapsible=1;marginBottom=0;strokeColor=#36393d;rounded=1;" vertex="1" parent="WIyWlLk6GJQsqaUBKTNV-1">
          <mxGeometry x="165.05" y="567.05" width="140" height="208" as="geometry" />
        </mxCell>
        <mxCell id="rH6lZKR-5S6QWdBcWnSk-90" value="sku" style="text;strokeColor=none;fillColor=none;align=left;verticalAlign=top;spacingLeft=4;spacingRight=4;overflow=hidden;rotatable=0;points=[[0,0.5],[1,0.5]];portConstraint=eastwest;rounded=1;fontColor=#1D3557;" vertex="1" parent="rH6lZKR-5S6QWdBcWnSk-89">
          <mxGeometry y="26" width="140" height="26" as="geometry" />
        </mxCell>
        <mxCell id="rH6lZKR-5S6QWdBcWnSk-321" value="purchase" style="text;strokeColor=none;fillColor=none;align=left;verticalAlign=top;spacingLeft=4;spacingRight=4;overflow=hidden;rotatable=0;points=[[0,0.5],[1,0.5]];portConstraint=eastwest;rounded=1;fontColor=#1D3557;" vertex="1" parent="rH6lZKR-5S6QWdBcWnSk-89">
          <mxGeometry y="52" width="140" height="26" as="geometry" />
        </mxCell>
        <mxCell id="rH6lZKR-5S6QWdBcWnSk-91" value="price" style="text;strokeColor=none;fillColor=none;align=left;verticalAlign=top;spacingLeft=4;spacingRight=4;overflow=hidden;rotatable=0;points=[[0,0.5],[1,0.5]];portConstraint=eastwest;rounded=1;fontColor=#1D3557;" vertex="1" parent="rH6lZKR-5S6QWdBcWnSk-89">
          <mxGeometry y="78" width="140" height="26" as="geometry" />
        </mxCell>
        <mxCell id="rH6lZKR-5S6QWdBcWnSk-92" value="dicount" style="text;strokeColor=none;fillColor=none;align=left;verticalAlign=top;spacingLeft=4;spacingRight=4;overflow=hidden;rotatable=0;points=[[0,0.5],[1,0.5]];portConstraint=eastwest;rounded=1;fontColor=#1D3557;" vertex="1" parent="rH6lZKR-5S6QWdBcWnSk-89">
          <mxGeometry y="104" width="140" height="26" as="geometry" />
        </mxCell>
        <mxCell id="rH6lZKR-5S6QWdBcWnSk-98" value="major" style="text;strokeColor=none;fillColor=none;align=left;verticalAlign=top;spacingLeft=4;spacingRight=4;overflow=hidden;rotatable=0;points=[[0,0.5],[1,0.5]];portConstraint=eastwest;rounded=1;fontColor=#1D3557;" vertex="1" parent="rH6lZKR-5S6QWdBcWnSk-89">
          <mxGeometry y="130" width="140" height="26" as="geometry" />
        </mxCell>
        <mxCell id="rH6lZKR-5S6QWdBcWnSk-99" value="sbon" style="text;strokeColor=none;fillColor=none;align=left;verticalAlign=top;spacingLeft=4;spacingRight=4;overflow=hidden;rotatable=0;points=[[0,0.5],[1,0.5]];portConstraint=eastwest;rounded=1;fontColor=#1D3557;" vertex="1" parent="rH6lZKR-5S6QWdBcWnSk-89">
          <mxGeometry y="156" width="140" height="26" as="geometry" />
        </mxCell>
        <mxCell id="rH6lZKR-5S6QWdBcWnSk-100" value="stock" style="text;strokeColor=none;fillColor=none;align=left;verticalAlign=top;spacingLeft=4;spacingRight=4;overflow=hidden;rotatable=0;points=[[0,0.5],[1,0.5]];portConstraint=eastwest;rounded=1;fontColor=#1D3557;" vertex="1" parent="rH6lZKR-5S6QWdBcWnSk-89">
          <mxGeometry y="182" width="140" height="26" as="geometry" />
        </mxCell>
        <mxCell id="rH6lZKR-5S6QWdBcWnSk-105" style="edgeStyle=orthogonalEdgeStyle;rounded=1;orthogonalLoop=1;jettySize=auto;html=1;exitX=0;exitY=0.5;exitDx=0;exitDy=0;entryX=0.5;entryY=0;entryDx=0;entryDy=0;strokeColor=#457B9D;fontColor=#1D3557;labelBackgroundColor=#F1FAEE;" edge="1" parent="WIyWlLk6GJQsqaUBKTNV-1" source="rH6lZKR-5S6QWdBcWnSk-104" target="AX2P9v-LNy21JHfI5INp-2">
          <mxGeometry relative="1" as="geometry">
            <mxPoint x="618.05" y="564.9599999999999" as="targetPoint" />
            <mxPoint x="958.05" y="1016" as="sourcePoint" />
            <Array as="points">
              <mxPoint x="955.05" y="1016" />
              <mxPoint x="955.05" y="1047" />
              <mxPoint x="715.05" y="1047" />
              <mxPoint x="715.05" y="527" />
              <mxPoint x="622.05" y="527" />
            </Array>
          </mxGeometry>
        </mxCell>
        <mxCell id="rH6lZKR-5S6QWdBcWnSk-106" value="order_item" style="swimlane;fontStyle=0;childLayout=stackLayout;horizontal=1;startSize=26;horizontalStack=0;resizeParent=1;resizeParentMax=0;resizeLast=0;collapsible=1;marginBottom=0;fillColor=#cdeb8b;strokeColor=#36393d;rounded=1;" vertex="1" parent="WIyWlLk6GJQsqaUBKTNV-1">
          <mxGeometry x="742.05" y="236.00000000000023" width="160" height="104" as="geometry" />
        </mxCell>
        <mxCell id="rH6lZKR-5S6QWdBcWnSk-113" value="order" style="text;strokeColor=none;fillColor=none;align=left;verticalAlign=top;spacingLeft=4;spacingRight=4;overflow=hidden;rotatable=0;points=[[0,0.5],[1,0.5]];portConstraint=eastwest;rounded=1;fontColor=#1D3557;" vertex="1" parent="rH6lZKR-5S6QWdBcWnSk-106">
          <mxGeometry y="26" width="160" height="26" as="geometry" />
        </mxCell>
        <mxCell id="rH6lZKR-5S6QWdBcWnSk-109" value="count" style="text;strokeColor=none;fillColor=none;align=left;verticalAlign=top;spacingLeft=4;spacingRight=4;overflow=hidden;rotatable=0;points=[[0,0.5],[1,0.5]];portConstraint=eastwest;rounded=1;fontColor=#1D3557;" vertex="1" parent="rH6lZKR-5S6QWdBcWnSk-106">
          <mxGeometry y="52" width="160" height="26" as="geometry" />
        </mxCell>
        <mxCell id="rH6lZKR-5S6QWdBcWnSk-108" value="sku_details" style="text;strokeColor=none;fillColor=none;align=left;verticalAlign=top;spacingLeft=4;spacingRight=4;overflow=hidden;rotatable=0;points=[[0,0.5],[1,0.5]];portConstraint=eastwest;rounded=1;fontColor=#1D3557;" vertex="1" parent="rH6lZKR-5S6QWdBcWnSk-106">
          <mxGeometry y="78" width="160" height="26" as="geometry" />
        </mxCell>
        <mxCell id="rH6lZKR-5S6QWdBcWnSk-115" value="attribute_group" style="swimlane;fontStyle=0;childLayout=stackLayout;horizontal=1;startSize=30;horizontalStack=0;resizeParent=1;resizeParentMax=0;resizeLast=0;collapsible=1;marginBottom=0;fillColor=#cdeb8b;strokeColor=#36393d;rounded=1;" vertex="1" parent="WIyWlLk6GJQsqaUBKTNV-1">
          <mxGeometry x="762.05" y="564.9599999999999" width="160" height="120" as="geometry" />
        </mxCell>
        <mxCell id="rH6lZKR-5S6QWdBcWnSk-116" value="label" style="text;strokeColor=none;fillColor=none;align=left;verticalAlign=middle;spacingLeft=4;spacingRight=4;overflow=hidden;points=[[0,0.5],[1,0.5]];portConstraint=eastwest;rotatable=0;rounded=1;fontColor=#1D3557;" vertex="1" parent="rH6lZKR-5S6QWdBcWnSk-115">
          <mxGeometry y="30" width="160" height="30" as="geometry" />
        </mxCell>
        <mxCell id="rH6lZKR-5S6QWdBcWnSk-117" value="product" style="text;strokeColor=none;fillColor=none;align=left;verticalAlign=middle;spacingLeft=4;spacingRight=4;overflow=hidden;points=[[0,0.5],[1,0.5]];portConstraint=eastwest;rotatable=0;rounded=1;fontColor=#1D3557;" vertex="1" parent="rH6lZKR-5S6QWdBcWnSk-115">
          <mxGeometry y="60" width="160" height="30" as="geometry" />
        </mxCell>
        <mxCell id="rH6lZKR-5S6QWdBcWnSk-118" value="attributes" style="text;strokeColor=none;fillColor=none;align=left;verticalAlign=middle;spacingLeft=4;spacingRight=4;overflow=hidden;points=[[0,0.5],[1,0.5]];portConstraint=eastwest;rotatable=0;rounded=1;fontColor=#1D3557;" vertex="1" parent="rH6lZKR-5S6QWdBcWnSk-115">
          <mxGeometry y="90" width="160" height="30" as="geometry" />
        </mxCell>
        <mxCell id="rH6lZKR-5S6QWdBcWnSk-123" style="edgeStyle=orthogonalEdgeStyle;rounded=1;orthogonalLoop=1;jettySize=auto;html=1;exitX=0.5;exitY=0;exitDx=0;exitDy=0;entryX=1;entryY=0.5;entryDx=0;entryDy=0;startArrow=classic;startFill=1;endArrow=none;endFill=0;strokeColor=#457B9D;fontColor=#1D3557;labelBackgroundColor=#F1FAEE;" edge="1" parent="WIyWlLk6GJQsqaUBKTNV-1" source="rH6lZKR-5S6QWdBcWnSk-119" target="rH6lZKR-5S6QWdBcWnSk-118">
          <mxGeometry relative="1" as="geometry">
            <Array as="points">
              <mxPoint x="1032.05" y="546.92" />
              <mxPoint x="932.05" y="546.92" />
              <mxPoint x="932.05" y="671.92" />
            </Array>
          </mxGeometry>
        </mxCell>
        <mxCell id="rH6lZKR-5S6QWdBcWnSk-119" value="attribute" style="swimlane;fontStyle=0;childLayout=stackLayout;horizontal=1;startSize=30;horizontalStack=0;resizeParent=1;resizeParentMax=0;resizeLast=0;collapsible=1;marginBottom=0;fillColor=#cdeb8b;strokeColor=#36393d;rounded=1;" vertex="1" parent="WIyWlLk6GJQsqaUBKTNV-1">
          <mxGeometry x="952.05" y="564.9599999999999" width="160" height="120" as="geometry" />
        </mxCell>
        <mxCell id="rH6lZKR-5S6QWdBcWnSk-120" value="label" style="text;strokeColor=none;fillColor=none;align=left;verticalAlign=middle;spacingLeft=4;spacingRight=4;overflow=hidden;points=[[0,0.5],[1,0.5]];portConstraint=eastwest;rotatable=0;rounded=1;fontColor=#1D3557;" vertex="1" parent="rH6lZKR-5S6QWdBcWnSk-119">
          <mxGeometry y="30" width="160" height="30" as="geometry" />
        </mxCell>
        <mxCell id="rH6lZKR-5S6QWdBcWnSk-122" value="items" style="text;strokeColor=none;fillColor=none;align=left;verticalAlign=middle;spacingLeft=4;spacingRight=4;overflow=hidden;points=[[0,0.5],[1,0.5]];portConstraint=eastwest;rotatable=0;rounded=1;fontColor=#1D3557;" vertex="1" parent="rH6lZKR-5S6QWdBcWnSk-119">
          <mxGeometry y="60" width="160" height="30" as="geometry" />
        </mxCell>
        <mxCell id="rH6lZKR-5S6QWdBcWnSk-121" value="attribute_group" style="text;strokeColor=none;fillColor=none;align=left;verticalAlign=middle;spacingLeft=4;spacingRight=4;overflow=hidden;points=[[0,0.5],[1,0.5]];portConstraint=eastwest;rotatable=0;rounded=1;fontColor=#1D3557;" vertex="1" parent="rH6lZKR-5S6QWdBcWnSk-119">
          <mxGeometry y="90" width="160" height="30" as="geometry" />
        </mxCell>
        <mxCell id="rH6lZKR-5S6QWdBcWnSk-124" style="edgeStyle=orthogonalEdgeStyle;rounded=1;orthogonalLoop=1;jettySize=auto;html=1;exitX=0;exitY=0.5;exitDx=0;exitDy=0;entryX=0.5;entryY=0;entryDx=0;entryDy=0;strokeColor=#457B9D;fontColor=#1D3557;labelBackgroundColor=#F1FAEE;" edge="1" parent="WIyWlLk6GJQsqaUBKTNV-1" source="rH6lZKR-5S6QWdBcWnSk-121" target="rH6lZKR-5S6QWdBcWnSk-115">
          <mxGeometry relative="1" as="geometry">
            <Array as="points">
              <mxPoint x="942.05" y="669.92" />
              <mxPoint x="942.05" y="536.92" />
              <mxPoint x="842.05" y="536.92" />
            </Array>
          </mxGeometry>
        </mxCell>
        <mxCell id="rH6lZKR-5S6QWdBcWnSk-127" style="edgeStyle=orthogonalEdgeStyle;rounded=1;orthogonalLoop=1;jettySize=auto;html=1;exitX=0;exitY=0.5;exitDx=0;exitDy=0;entryX=0.5;entryY=0;entryDx=0;entryDy=0;strokeColor=#457B9D;fontColor=#1D3557;labelBackgroundColor=#F1FAEE;" edge="1" parent="WIyWlLk6GJQsqaUBKTNV-1" source="rH6lZKR-5S6QWdBcWnSk-117" target="AX2P9v-LNy21JHfI5INp-2">
          <mxGeometry relative="1" as="geometry">
            <Array as="points">
              <mxPoint x="742.05" y="642.05" />
              <mxPoint x="742.05" y="547.05" />
              <mxPoint x="622.05" y="547.05" />
            </Array>
          </mxGeometry>
        </mxCell>
        <mxCell id="rH6lZKR-5S6QWdBcWnSk-128" style="edgeStyle=orthogonalEdgeStyle;rounded=1;orthogonalLoop=1;jettySize=auto;html=1;exitX=1;exitY=0.5;exitDx=0;exitDy=0;entryX=0.5;entryY=0;entryDx=0;entryDy=0;strokeColor=#457B9D;fontColor=#1D3557;labelBackgroundColor=#F1FAEE;" edge="1" parent="WIyWlLk6GJQsqaUBKTNV-1" source="rH6lZKR-5S6QWdBcWnSk-125" target="rH6lZKR-5S6QWdBcWnSk-115">
          <mxGeometry relative="1" as="geometry">
            <Array as="points">
              <mxPoint x="732.05" y="759.92" />
              <mxPoint x="732.05" y="556.92" />
              <mxPoint x="772.05" y="556.92" />
              <mxPoint x="772.05" y="536.92" />
              <mxPoint x="842.05" y="536.92" />
            </Array>
          </mxGeometry>
        </mxCell>
        <mxCell id="rH6lZKR-5S6QWdBcWnSk-129" style="edgeStyle=orthogonalEdgeStyle;rounded=1;orthogonalLoop=1;jettySize=auto;html=1;exitX=1;exitY=0.5;exitDx=0;exitDy=0;entryX=0.5;entryY=0;entryDx=0;entryDy=0;strokeColor=#457B9D;fontColor=#1D3557;labelBackgroundColor=#F1FAEE;" edge="1" parent="WIyWlLk6GJQsqaUBKTNV-1" source="rH6lZKR-5S6QWdBcWnSk-90" target="AX2P9v-LNy21JHfI5INp-30">
          <mxGeometry relative="1" as="geometry">
            <mxPoint x="442.05" y="556.92" as="targetPoint" />
            <Array as="points">
              <mxPoint x="332.05" y="605.92" />
              <mxPoint x="332.05" y="546.92" />
              <mxPoint x="422.05" y="546.92" />
            </Array>
          </mxGeometry>
        </mxCell>
        <mxCell id="rH6lZKR-5S6QWdBcWnSk-130" style="edgeStyle=orthogonalEdgeStyle;rounded=1;orthogonalLoop=1;jettySize=auto;html=1;exitX=0;exitY=0.5;exitDx=0;exitDy=0;entryX=0.5;entryY=0;entryDx=0;entryDy=0;strokeColor=#457B9D;fontColor=#1D3557;labelBackgroundColor=#F1FAEE;" edge="1" parent="WIyWlLk6GJQsqaUBKTNV-1" source="rH6lZKR-5S6QWdBcWnSk-26" target="rH6lZKR-5S6QWdBcWnSk-89">
          <mxGeometry relative="1" as="geometry">
            <mxPoint x="302.05" y="776.92" as="targetPoint" />
            <Array as="points">
              <mxPoint x="332.05" y="656" />
              <mxPoint x="332.05" y="787" />
              <mxPoint x="145.05" y="787" />
              <mxPoint x="145.05" y="547" />
              <mxPoint x="235.05" y="547" />
            </Array>
          </mxGeometry>
        </mxCell>
        <mxCell id="AX2P9v-LNy21JHfI5INp-6" value="user" style="swimlane;fontStyle=0;childLayout=stackLayout;horizontal=1;startSize=26;fillColor=#cdeb8b;horizontalStack=0;resizeParent=1;resizeParentMax=0;resizeLast=0;collapsible=1;marginBottom=0;strokeColor=#36393d;rounded=1;" vertex="1" parent="WIyWlLk6GJQsqaUBKTNV-1">
          <mxGeometry x="542.05" y="107" width="160" height="338" as="geometry" />
        </mxCell>
        <mxCell id="AX2P9v-LNy21JHfI5INp-7" value="phone" style="text;strokeColor=none;fillColor=none;align=left;verticalAlign=top;spacingLeft=4;spacingRight=4;overflow=hidden;rotatable=0;points=[[0,0.5],[1,0.5]];portConstraint=eastwest;rounded=1;fontColor=#1D3557;" vertex="1" parent="AX2P9v-LNy21JHfI5INp-6">
          <mxGeometry y="26" width="160" height="26" as="geometry" />
        </mxCell>
        <mxCell id="rH6lZKR-5S6QWdBcWnSk-62" value="email" style="text;strokeColor=none;fillColor=none;align=left;verticalAlign=top;spacingLeft=4;spacingRight=4;overflow=hidden;rotatable=0;points=[[0,0.5],[1,0.5]];portConstraint=eastwest;rounded=1;fontColor=#1D3557;" vertex="1" parent="AX2P9v-LNy21JHfI5INp-6">
          <mxGeometry y="52" width="160" height="26" as="geometry" />
        </mxCell>
        <mxCell id="AX2P9v-LNy21JHfI5INp-8" value="firstname" style="text;strokeColor=none;fillColor=none;align=left;verticalAlign=top;spacingLeft=4;spacingRight=4;overflow=hidden;rotatable=0;points=[[0,0.5],[1,0.5]];portConstraint=eastwest;rounded=1;fontColor=#1D3557;" vertex="1" parent="AX2P9v-LNy21JHfI5INp-6">
          <mxGeometry y="78" width="160" height="26" as="geometry" />
        </mxCell>
        <mxCell id="AX2P9v-LNy21JHfI5INp-9" value="lastname" style="text;strokeColor=none;fillColor=none;align=left;verticalAlign=top;spacingLeft=4;spacingRight=4;overflow=hidden;rotatable=0;points=[[0,0.5],[1,0.5]];portConstraint=eastwest;rounded=1;fontColor=#1D3557;" vertex="1" parent="AX2P9v-LNy21JHfI5INp-6">
          <mxGeometry y="104" width="160" height="26" as="geometry" />
        </mxCell>
        <mxCell id="rH6lZKR-5S6QWdBcWnSk-63" value="avatar_file" style="text;strokeColor=none;fillColor=none;align=left;verticalAlign=top;spacingLeft=4;spacingRight=4;overflow=hidden;rotatable=0;points=[[0,0.5],[1,0.5]];portConstraint=eastwest;rounded=1;fontColor=#1D3557;" vertex="1" parent="AX2P9v-LNy21JHfI5INp-6">
          <mxGeometry y="130" width="160" height="26" as="geometry" />
        </mxCell>
        <mxCell id="rH6lZKR-5S6QWdBcWnSk-77" value="addresses" style="text;strokeColor=none;fillColor=none;align=left;verticalAlign=top;spacingLeft=4;spacingRight=4;overflow=hidden;rotatable=0;points=[[0,0.5],[1,0.5]];portConstraint=eastwest;rounded=1;fontColor=#1D3557;" vertex="1" parent="AX2P9v-LNy21JHfI5INp-6">
          <mxGeometry y="156" width="160" height="26" as="geometry" />
        </mxCell>
        <mxCell id="rH6lZKR-5S6QWdBcWnSk-78" value="cart&#xa;" style="text;strokeColor=none;fillColor=none;align=left;verticalAlign=top;spacingLeft=4;spacingRight=4;overflow=hidden;rotatable=0;points=[[0,0.5],[1,0.5]];portConstraint=eastwest;rounded=1;fontColor=#1D3557;" vertex="1" parent="AX2P9v-LNy21JHfI5INp-6">
          <mxGeometry y="182" width="160" height="26" as="geometry" />
        </mxCell>
        <mxCell id="rH6lZKR-5S6QWdBcWnSk-79" value="favorites" style="text;strokeColor=none;fillColor=none;align=left;verticalAlign=top;spacingLeft=4;spacingRight=4;overflow=hidden;rotatable=0;points=[[0,0.5],[1,0.5]];portConstraint=eastwest;rounded=1;fontColor=#1D3557;" vertex="1" parent="AX2P9v-LNy21JHfI5INp-6">
          <mxGeometry y="208" width="160" height="26" as="geometry" />
        </mxCell>
        <mxCell id="rH6lZKR-5S6QWdBcWnSk-145" value="orders" style="text;strokeColor=none;fillColor=none;align=left;verticalAlign=top;spacingLeft=4;spacingRight=4;overflow=hidden;rotatable=0;points=[[0,0.5],[1,0.5]];portConstraint=eastwest;rounded=1;fontColor=#1D3557;" vertex="1" parent="AX2P9v-LNy21JHfI5INp-6">
          <mxGeometry y="234" width="160" height="26" as="geometry" />
        </mxCell>
        <mxCell id="rH6lZKR-5S6QWdBcWnSk-268" value="role" style="text;strokeColor=none;fillColor=none;align=left;verticalAlign=top;spacingLeft=4;spacingRight=4;overflow=hidden;rotatable=0;points=[[0,0.5],[1,0.5]];portConstraint=eastwest;rounded=1;fontColor=#1D3557;" vertex="1" parent="AX2P9v-LNy21JHfI5INp-6">
          <mxGeometry y="260" width="160" height="26" as="geometry" />
        </mxCell>
        <mxCell id="rH6lZKR-5S6QWdBcWnSk-148" value="born_at" style="text;strokeColor=none;fillColor=none;align=left;verticalAlign=top;spacingLeft=4;spacingRight=4;overflow=hidden;rotatable=0;points=[[0,0.5],[1,0.5]];portConstraint=eastwest;rounded=1;fontColor=#1D3557;" vertex="1" parent="AX2P9v-LNy21JHfI5INp-6">
          <mxGeometry y="286" width="160" height="26" as="geometry" />
        </mxCell>
        <mxCell id="rH6lZKR-5S6QWdBcWnSk-271" value="online_at" style="text;strokeColor=none;fillColor=none;align=left;verticalAlign=top;spacingLeft=4;spacingRight=4;overflow=hidden;rotatable=0;points=[[0,0.5],[1,0.5]];portConstraint=eastwest;rounded=1;fontColor=#1D3557;" vertex="1" parent="AX2P9v-LNy21JHfI5INp-6">
          <mxGeometry y="312" width="160" height="26" as="geometry" />
        </mxCell>
        <mxCell id="rH6lZKR-5S6QWdBcWnSk-133" style="edgeStyle=orthogonalEdgeStyle;rounded=1;orthogonalLoop=1;jettySize=auto;html=1;exitX=1;exitY=0.5;exitDx=0;exitDy=0;entryX=0.5;entryY=0;entryDx=0;entryDy=0;strokeColor=#457B9D;fontColor=#1D3557;labelBackgroundColor=#F1FAEE;" edge="1" parent="WIyWlLk6GJQsqaUBKTNV-1" source="rH6lZKR-5S6QWdBcWnSk-132" target="AX2P9v-LNy21JHfI5INp-6">
          <mxGeometry relative="1" as="geometry">
            <Array as="points">
              <mxPoint x="522.05" y="406" />
              <mxPoint x="522.05" y="77" />
              <mxPoint x="622.05" y="77" />
            </Array>
          </mxGeometry>
        </mxCell>
        <mxCell id="rH6lZKR-5S6QWdBcWnSk-134" style="edgeStyle=orthogonalEdgeStyle;rounded=1;orthogonalLoop=1;jettySize=auto;html=1;exitX=0;exitY=0.5;exitDx=0;exitDy=0;entryX=0.5;entryY=0;entryDx=0;entryDy=0;strokeColor=#457B9D;fontColor=#1D3557;labelBackgroundColor=#F1FAEE;" edge="1" parent="WIyWlLk6GJQsqaUBKTNV-1" source="rH6lZKR-5S6QWdBcWnSk-77" target="AX2P9v-LNy21JHfI5INp-22">
          <mxGeometry relative="1" as="geometry">
            <Array as="points">
              <mxPoint x="532.05" y="276" />
              <mxPoint x="532.05" y="87" />
              <mxPoint x="432.05" y="87" />
            </Array>
          </mxGeometry>
        </mxCell>
        <mxCell id="rH6lZKR-5S6QWdBcWnSk-135" style="edgeStyle=orthogonalEdgeStyle;rounded=1;orthogonalLoop=1;jettySize=auto;html=1;exitX=1;exitY=0.5;exitDx=0;exitDy=0;entryX=0.5;entryY=0;entryDx=0;entryDy=0;strokeColor=#457B9D;fontColor=#1D3557;labelBackgroundColor=#F1FAEE;" edge="1" parent="WIyWlLk6GJQsqaUBKTNV-1" source="rH6lZKR-5S6QWdBcWnSk-78" target="rH6lZKR-5S6QWdBcWnSk-4">
          <mxGeometry relative="1" as="geometry">
            <Array as="points">
              <mxPoint x="732" y="302" />
              <mxPoint x="732" y="60" />
              <mxPoint x="822" y="60" />
            </Array>
          </mxGeometry>
        </mxCell>
        <mxCell id="rH6lZKR-5S6QWdBcWnSk-137" style="edgeStyle=orthogonalEdgeStyle;rounded=1;orthogonalLoop=1;jettySize=auto;html=1;exitX=1;exitY=0.5;exitDx=0;exitDy=0;entryX=0.5;entryY=0;entryDx=0;entryDy=0;strokeColor=#457B9D;fontColor=#1D3557;labelBackgroundColor=#F1FAEE;" edge="1" parent="WIyWlLk6GJQsqaUBKTNV-1" source="rH6lZKR-5S6QWdBcWnSk-6" target="AX2P9v-LNy21JHfI5INp-30">
          <mxGeometry relative="1" as="geometry">
            <Array as="points">
              <mxPoint x="912.05" y="172" />
              <mxPoint x="912.05" y="27" />
              <mxPoint x="342.05" y="27" />
              <mxPoint x="342.05" y="537" />
              <mxPoint x="422.05" y="537" />
            </Array>
          </mxGeometry>
        </mxCell>
        <mxCell id="rH6lZKR-5S6QWdBcWnSk-139" style="edgeStyle=orthogonalEdgeStyle;rounded=1;orthogonalLoop=1;jettySize=auto;html=1;exitX=0;exitY=0.5;exitDx=0;exitDy=0;entryX=0.5;entryY=0;entryDx=0;entryDy=0;strokeColor=#457B9D;fontColor=#1D3557;labelBackgroundColor=#F1FAEE;" edge="1" parent="WIyWlLk6GJQsqaUBKTNV-1" source="rH6lZKR-5S6QWdBcWnSk-111" target="rH6lZKR-5S6QWdBcWnSk-106">
          <mxGeometry relative="1" as="geometry">
            <Array as="points">
              <mxPoint x="932.05" y="198" />
              <mxPoint x="932.05" y="227" />
              <mxPoint x="822.05" y="227" />
            </Array>
          </mxGeometry>
        </mxCell>
        <mxCell id="rH6lZKR-5S6QWdBcWnSk-140" style="edgeStyle=orthogonalEdgeStyle;rounded=1;orthogonalLoop=1;jettySize=auto;html=1;exitX=1;exitY=0.5;exitDx=0;exitDy=0;entryX=0.5;entryY=0;entryDx=0;entryDy=0;strokeColor=#457B9D;fontColor=#1D3557;labelBackgroundColor=#F1FAEE;" edge="1" parent="WIyWlLk6GJQsqaUBKTNV-1" source="rH6lZKR-5S6QWdBcWnSk-108" target="rH6lZKR-5S6QWdBcWnSk-89">
          <mxGeometry relative="1" as="geometry">
            <Array as="points">
              <mxPoint x="922.05" y="327" />
              <mxPoint x="922.05" y="37" />
              <mxPoint x="332.05" y="37" />
              <mxPoint x="332.05" y="537" />
              <mxPoint x="235.05" y="537" />
            </Array>
          </mxGeometry>
        </mxCell>
        <mxCell id="rH6lZKR-5S6QWdBcWnSk-141" style="edgeStyle=orthogonalEdgeStyle;rounded=1;orthogonalLoop=1;jettySize=auto;html=1;exitX=1;exitY=0.5;exitDx=0;exitDy=0;entryX=0.5;entryY=0;entryDx=0;entryDy=0;strokeColor=#457B9D;fontColor=#1D3557;labelBackgroundColor=#F1FAEE;" edge="1" parent="WIyWlLk6GJQsqaUBKTNV-1" source="AX2P9v-LNy21JHfI5INp-27" target="AX2P9v-LNy21JHfI5INp-6">
          <mxGeometry relative="1" as="geometry">
            <mxPoint x="652.05" y="97" as="targetPoint" />
            <Array as="points">
              <mxPoint x="1132.05" y="172" />
              <mxPoint x="1132.05" y="87" />
              <mxPoint x="622.05" y="87" />
            </Array>
          </mxGeometry>
        </mxCell>
        <mxCell id="rH6lZKR-5S6QWdBcWnSk-142" style="edgeStyle=orthogonalEdgeStyle;rounded=1;orthogonalLoop=1;jettySize=auto;html=1;exitX=1;exitY=0.5;exitDx=0;exitDy=0;entryX=0.5;entryY=0;entryDx=0;entryDy=0;strokeColor=#457B9D;fontColor=#1D3557;labelBackgroundColor=#F1FAEE;" edge="1" parent="WIyWlLk6GJQsqaUBKTNV-1" source="rH6lZKR-5S6QWdBcWnSk-63" target="rH6lZKR-5S6QWdBcWnSk-17">
          <mxGeometry relative="1" as="geometry">
            <Array as="points">
              <mxPoint x="722.05" y="250" />
              <mxPoint x="722.05" y="77" />
              <mxPoint x="1425.05" y="77" />
            </Array>
          </mxGeometry>
        </mxCell>
        <mxCell id="rH6lZKR-5S6QWdBcWnSk-144" style="edgeStyle=orthogonalEdgeStyle;rounded=1;orthogonalLoop=1;jettySize=auto;html=1;entryX=0.5;entryY=0;entryDx=0;entryDy=0;exitX=0;exitY=0.5;exitDx=0;exitDy=0;strokeColor=#457B9D;fontColor=#1D3557;labelBackgroundColor=#F1FAEE;" edge="1" parent="WIyWlLk6GJQsqaUBKTNV-1" source="rH6lZKR-5S6QWdBcWnSk-230" target="AX2P9v-LNy21JHfI5INp-2">
          <mxGeometry relative="1" as="geometry">
            <mxPoint x="1125.05" y="434" as="sourcePoint" />
            <mxPoint x="652.05" y="553" as="targetPoint" />
            <Array as="points">
              <mxPoint x="725.05" y="424" />
              <mxPoint x="725.05" y="517" />
              <mxPoint x="622.05" y="517" />
            </Array>
          </mxGeometry>
        </mxCell>
        <mxCell id="rH6lZKR-5S6QWdBcWnSk-146" style="edgeStyle=orthogonalEdgeStyle;rounded=1;orthogonalLoop=1;jettySize=auto;html=1;exitX=1;exitY=0.5;exitDx=0;exitDy=0;entryX=0.5;entryY=0;entryDx=0;entryDy=0;strokeColor=#457B9D;fontColor=#1D3557;labelBackgroundColor=#F1FAEE;" edge="1" parent="WIyWlLk6GJQsqaUBKTNV-1" source="rH6lZKR-5S6QWdBcWnSk-145" target="AX2P9v-LNy21JHfI5INp-26">
          <mxGeometry relative="1" as="geometry">
            <Array as="points">
              <mxPoint x="715.05" y="354" />
              <mxPoint x="715.05" y="447" />
              <mxPoint x="942.05" y="447" />
              <mxPoint x="942.05" y="97" />
              <mxPoint x="1042.05" y="97" />
            </Array>
          </mxGeometry>
        </mxCell>
        <mxCell id="rH6lZKR-5S6QWdBcWnSk-147" style="edgeStyle=orthogonalEdgeStyle;rounded=1;orthogonalLoop=1;jettySize=auto;html=1;exitX=0;exitY=0.5;exitDx=0;exitDy=0;entryX=0.5;entryY=0;entryDx=0;entryDy=0;strokeColor=#457B9D;fontColor=#1D3557;labelBackgroundColor=#F1FAEE;" edge="1" parent="WIyWlLk6GJQsqaUBKTNV-1" source="AX2P9v-LNy21JHfI5INp-27" target="AX2P9v-LNy21JHfI5INp-6">
          <mxGeometry relative="1" as="geometry">
            <mxPoint x="622.05" y="135.94736842105274" as="targetPoint" />
            <Array as="points">
              <mxPoint x="932.05" y="172" />
              <mxPoint x="932.05" y="67" />
              <mxPoint x="622.05" y="67" />
            </Array>
          </mxGeometry>
        </mxCell>
        <mxCell id="rH6lZKR-5S6QWdBcWnSk-153" style="edgeStyle=orthogonalEdgeStyle;rounded=1;orthogonalLoop=1;jettySize=auto;html=1;exitX=1;exitY=0.5;exitDx=0;exitDy=0;entryX=0.5;entryY=0;entryDx=0;entryDy=0;strokeColor=#457B9D;fontColor=#1D3557;labelBackgroundColor=#F1FAEE;" edge="1" parent="WIyWlLk6GJQsqaUBKTNV-1" source="rH6lZKR-5S6QWdBcWnSk-113" target="AX2P9v-LNy21JHfI5INp-26">
          <mxGeometry relative="1" as="geometry">
            <Array as="points">
              <mxPoint x="952.05" y="275" />
              <mxPoint x="952.05" y="67" />
              <mxPoint x="1042.05" y="67" />
            </Array>
          </mxGeometry>
        </mxCell>
        <mxCell id="rH6lZKR-5S6QWdBcWnSk-154" style="edgeStyle=orthogonalEdgeStyle;rounded=1;orthogonalLoop=1;jettySize=auto;html=1;exitX=0;exitY=0.5;exitDx=0;exitDy=0;entryX=0.5;entryY=0;entryDx=0;entryDy=0;strokeColor=#457B9D;fontColor=#1D3557;labelBackgroundColor=#F1FAEE;" edge="1" parent="WIyWlLk6GJQsqaUBKTNV-1" source="rH6lZKR-5S6QWdBcWnSk-90" target="AX2P9v-LNy21JHfI5INp-30">
          <mxGeometry relative="1" as="geometry">
            <Array as="points">
              <mxPoint x="155.05" y="606" />
              <mxPoint x="155.05" y="517" />
              <mxPoint x="422.05" y="517" />
            </Array>
          </mxGeometry>
        </mxCell>
        <mxCell id="rH6lZKR-5S6QWdBcWnSk-155" style="edgeStyle=orthogonalEdgeStyle;rounded=1;orthogonalLoop=1;jettySize=auto;html=1;exitX=1;exitY=0.5;exitDx=0;exitDy=0;entryX=0.5;entryY=0;entryDx=0;entryDy=0;strokeColor=#457B9D;fontColor=#1D3557;labelBackgroundColor=#F1FAEE;" edge="1" parent="WIyWlLk6GJQsqaUBKTNV-1" source="rH6lZKR-5S6QWdBcWnSk-32" target="AX2P9v-LNy21JHfI5INp-2">
          <mxGeometry relative="1" as="geometry">
            <Array as="points">
              <mxPoint x="522.05" y="681.92" />
              <mxPoint x="522.05" y="536.92" />
              <mxPoint x="622.05" y="536.92" />
            </Array>
          </mxGeometry>
        </mxCell>
        <mxCell id="rH6lZKR-5S6QWdBcWnSk-157" style="edgeStyle=orthogonalEdgeStyle;rounded=1;orthogonalLoop=1;jettySize=auto;html=1;exitX=0;exitY=0.5;exitDx=0;exitDy=0;entryX=0.5;entryY=0;entryDx=0;entryDy=0;strokeColor=#457B9D;fontColor=#1D3557;labelBackgroundColor=#F1FAEE;" edge="1" parent="WIyWlLk6GJQsqaUBKTNV-1" source="rH6lZKR-5S6QWdBcWnSk-156" target="AX2P9v-LNy21JHfI5INp-30">
          <mxGeometry relative="1" as="geometry">
            <Array as="points">
              <mxPoint x="512.05" y="837.92" />
              <mxPoint x="512.05" y="546.92" />
              <mxPoint x="422.05" y="546.92" />
            </Array>
          </mxGeometry>
        </mxCell>
        <mxCell id="rH6lZKR-5S6QWdBcWnSk-158" style="edgeStyle=orthogonalEdgeStyle;rounded=1;orthogonalLoop=1;jettySize=auto;html=1;exitX=0;exitY=0.5;exitDx=0;exitDy=0;entryX=0.5;entryY=0;entryDx=0;entryDy=0;strokeColor=#457B9D;fontColor=#1D3557;labelBackgroundColor=#F1FAEE;" edge="1" parent="WIyWlLk6GJQsqaUBKTNV-1" source="AX2P9v-LNy21JHfI5INp-33" target="rH6lZKR-5S6QWdBcWnSk-17">
          <mxGeometry relative="1" as="geometry">
            <Array as="points">
              <mxPoint x="322.05" y="708" />
              <mxPoint x="322.05" y="47" />
              <mxPoint x="1425.05" y="47" />
            </Array>
          </mxGeometry>
        </mxCell>
        <mxCell id="rH6lZKR-5S6QWdBcWnSk-159" style="edgeStyle=orthogonalEdgeStyle;rounded=1;orthogonalLoop=1;jettySize=auto;html=1;exitX=0;exitY=0.5;exitDx=0;exitDy=0;entryX=0.5;entryY=0;entryDx=0;entryDy=0;strokeColor=#457B9D;fontColor=#1D3557;labelBackgroundColor=#F1FAEE;" edge="1" parent="WIyWlLk6GJQsqaUBKTNV-1" source="rH6lZKR-5S6QWdBcWnSk-45" target="rH6lZKR-5S6QWdBcWnSk-17">
          <mxGeometry relative="1" as="geometry">
            <Array as="points">
              <mxPoint x="522.25" y="708" />
              <mxPoint x="522.25" y="1072" />
              <mxPoint x="1195.25" y="1072" />
              <mxPoint x="1195.25" y="727" />
              <mxPoint x="1545.25" y="727" />
              <mxPoint x="1545.25" y="57" />
              <mxPoint x="1425.25" y="57" />
            </Array>
          </mxGeometry>
        </mxCell>
        <mxCell id="rH6lZKR-5S6QWdBcWnSk-160" value="tag" style="swimlane;fontStyle=0;childLayout=stackLayout;horizontal=1;startSize=26;fillColor=#cdeb8b;horizontalStack=0;resizeParent=1;resizeParentMax=0;resizeLast=0;collapsible=1;marginBottom=0;strokeColor=#36393d;rounded=1;" vertex="1" parent="WIyWlLk6GJQsqaUBKTNV-1">
          <mxGeometry x="145.05" y="237" width="160" height="182" as="geometry" />
        </mxCell>
        <mxCell id="rH6lZKR-5S6QWdBcWnSk-161" value="title_fa" style="text;strokeColor=none;fillColor=none;align=left;verticalAlign=top;spacingLeft=4;spacingRight=4;overflow=hidden;rotatable=0;points=[[0,0.5],[1,0.5]];portConstraint=eastwest;rounded=1;fontColor=#1D3557;" vertex="1" parent="rH6lZKR-5S6QWdBcWnSk-160">
          <mxGeometry y="26" width="160" height="26" as="geometry" />
        </mxCell>
        <mxCell id="rH6lZKR-5S6QWdBcWnSk-162" value="title_en" style="text;strokeColor=none;fillColor=none;align=left;verticalAlign=top;spacingLeft=4;spacingRight=4;overflow=hidden;rotatable=0;points=[[0,0.5],[1,0.5]];portConstraint=eastwest;rounded=1;fontColor=#1D3557;" vertex="1" parent="rH6lZKR-5S6QWdBcWnSk-160">
          <mxGeometry y="52" width="160" height="26" as="geometry" />
        </mxCell>
        <mxCell id="rH6lZKR-5S6QWdBcWnSk-163" value="slug" style="text;strokeColor=none;fillColor=none;align=left;verticalAlign=top;spacingLeft=4;spacingRight=4;overflow=hidden;rotatable=0;points=[[0,0.5],[1,0.5]];portConstraint=eastwest;rounded=1;fontColor=#1D3557;" vertex="1" parent="rH6lZKR-5S6QWdBcWnSk-160">
          <mxGeometry y="78" width="160" height="26" as="geometry" />
        </mxCell>
        <mxCell id="rH6lZKR-5S6QWdBcWnSk-225" value="review" style="text;strokeColor=none;fillColor=none;align=left;verticalAlign=top;spacingLeft=4;spacingRight=4;overflow=hidden;rotatable=0;points=[[0,0.5],[1,0.5]];portConstraint=eastwest;rounded=1;fontColor=#1D3557;" vertex="1" parent="rH6lZKR-5S6QWdBcWnSk-160">
          <mxGeometry y="104" width="160" height="26" as="geometry" />
        </mxCell>
        <mxCell id="rH6lZKR-5S6QWdBcWnSk-165" value="section" style="text;strokeColor=none;fillColor=none;align=left;verticalAlign=top;spacingLeft=4;spacingRight=4;overflow=hidden;rotatable=0;points=[[0,0.5],[1,0.5]];portConstraint=eastwest;rounded=1;fontColor=#1D3557;" vertex="1" parent="rH6lZKR-5S6QWdBcWnSk-160">
          <mxGeometry y="130" width="160" height="26" as="geometry" />
        </mxCell>
        <mxCell id="rH6lZKR-5S6QWdBcWnSk-172" value="products" style="text;strokeColor=none;fillColor=none;align=left;verticalAlign=top;spacingLeft=4;spacingRight=4;overflow=hidden;rotatable=0;points=[[0,0.5],[1,0.5]];portConstraint=eastwest;rounded=1;fontColor=#1D3557;" vertex="1" parent="rH6lZKR-5S6QWdBcWnSk-160">
          <mxGeometry y="156" width="160" height="26" as="geometry" />
        </mxCell>
        <mxCell id="rH6lZKR-5S6QWdBcWnSk-170" style="edgeStyle=orthogonalEdgeStyle;rounded=1;orthogonalLoop=1;jettySize=auto;html=1;exitX=0;exitY=0.5;exitDx=0;exitDy=0;entryX=0.5;entryY=0;entryDx=0;entryDy=0;strokeColor=#457B9D;fontColor=#1D3557;labelBackgroundColor=#F1FAEE;" edge="1" parent="WIyWlLk6GJQsqaUBKTNV-1" source="rH6lZKR-5S6QWdBcWnSk-169" target="AX2P9v-LNy21JHfI5INp-2">
          <mxGeometry relative="1" as="geometry">
            <Array as="points">
              <mxPoint x="752.05" y="938" />
              <mxPoint x="752.05" y="537" />
              <mxPoint x="622.05" y="537" />
            </Array>
          </mxGeometry>
        </mxCell>
        <mxCell id="rH6lZKR-5S6QWdBcWnSk-174" style="edgeStyle=orthogonalEdgeStyle;rounded=1;orthogonalLoop=1;jettySize=auto;html=1;entryX=0.5;entryY=0;entryDx=0;entryDy=0;startArrow=none;startFill=0;endArrow=classic;endFill=1;strokeColor=#457B9D;exitX=1;exitY=0.5;exitDx=0;exitDy=0;fontColor=#1D3557;labelBackgroundColor=#F1FAEE;" edge="1" parent="WIyWlLk6GJQsqaUBKTNV-1" source="rH6lZKR-5S6QWdBcWnSk-172" target="AX2P9v-LNy21JHfI5INp-2">
          <mxGeometry relative="1" as="geometry">
            <mxPoint x="1339.05" y="912" as="sourcePoint" />
            <mxPoint x="626.05" y="564.9599999999999" as="targetPoint" />
            <Array as="points">
              <mxPoint x="315.05" y="406" />
              <mxPoint x="315.05" y="467" />
              <mxPoint x="622.05" y="467" />
            </Array>
          </mxGeometry>
        </mxCell>
        <mxCell id="rH6lZKR-5S6QWdBcWnSk-176" style="edgeStyle=orthogonalEdgeStyle;rounded=1;orthogonalLoop=1;jettySize=auto;html=1;exitX=1;exitY=0.5;exitDx=0;exitDy=0;entryX=0.5;entryY=0;entryDx=0;entryDy=0;startArrow=none;startFill=0;endArrow=classic;endFill=1;strokeColor=#457B9D;fontColor=#1D3557;labelBackgroundColor=#F1FAEE;" edge="1" parent="WIyWlLk6GJQsqaUBKTNV-1" source="rH6lZKR-5S6QWdBcWnSk-47" target="rH6lZKR-5S6QWdBcWnSk-17">
          <mxGeometry relative="1" as="geometry">
            <Array as="points">
              <mxPoint x="942.05" y="860" />
              <mxPoint x="942.05" y="703" />
              <mxPoint x="1525.05" y="703" />
              <mxPoint x="1525.05" y="67" />
              <mxPoint x="1425.05" y="67" />
            </Array>
          </mxGeometry>
        </mxCell>
        <mxCell id="rH6lZKR-5S6QWdBcWnSk-177" style="edgeStyle=orthogonalEdgeStyle;rounded=1;orthogonalLoop=1;jettySize=auto;html=1;exitX=1;exitY=0.5;exitDx=0;exitDy=0;startArrow=none;startFill=0;endArrow=classic;endFill=1;entryX=0.5;entryY=0;entryDx=0;entryDy=0;strokeColor=#457B9D;fontColor=#1D3557;labelBackgroundColor=#F1FAEE;" edge="1" parent="WIyWlLk6GJQsqaUBKTNV-1" source="rH6lZKR-5S6QWdBcWnSk-46" target="rH6lZKR-5S6QWdBcWnSk-17">
          <mxGeometry relative="1" as="geometry">
            <mxPoint x="1222.05" y="101" as="targetPoint" />
            <Array as="points">
              <mxPoint x="1142.05" y="912" />
              <mxPoint x="1142.05" y="687" />
              <mxPoint x="1515.05" y="687" />
              <mxPoint x="1515.05" y="77" />
              <mxPoint x="1425.05" y="77" />
            </Array>
          </mxGeometry>
        </mxCell>
        <mxCell id="rH6lZKR-5S6QWdBcWnSk-178" style="edgeStyle=orthogonalEdgeStyle;rounded=1;orthogonalLoop=1;jettySize=auto;html=1;exitX=1;exitY=0.5;exitDx=0;exitDy=0;entryX=0.5;entryY=0;entryDx=0;entryDy=0;startArrow=none;startFill=0;endArrow=classic;endFill=1;strokeColor=#457B9D;fontColor=#1D3557;labelBackgroundColor=#F1FAEE;" edge="1" parent="WIyWlLk6GJQsqaUBKTNV-1" source="rH6lZKR-5S6QWdBcWnSk-44" target="rH6lZKR-5S6QWdBcWnSk-17">
          <mxGeometry relative="1" as="geometry">
            <Array as="points">
              <mxPoint x="1152.05" y="938" />
              <mxPoint x="1152.05" y="713" />
              <mxPoint x="1535.05" y="713" />
              <mxPoint x="1535.05" y="47" />
              <mxPoint x="1425.05" y="47" />
            </Array>
          </mxGeometry>
        </mxCell>
        <mxCell id="rH6lZKR-5S6QWdBcWnSk-179" value="section" style="swimlane;fontStyle=0;childLayout=stackLayout;horizontal=1;startSize=26;fillColor=#cdeb8b;horizontalStack=0;resizeParent=1;resizeParentMax=0;resizeLast=0;collapsible=1;marginBottom=0;rounded=1;strokeColor=#36393d;" vertex="1" parent="WIyWlLk6GJQsqaUBKTNV-1">
          <mxGeometry x="1165.05" y="507" width="160" height="104" as="geometry" />
        </mxCell>
        <mxCell id="rH6lZKR-5S6QWdBcWnSk-181" value="sub_sections" style="text;strokeColor=none;fillColor=none;align=left;verticalAlign=top;spacingLeft=4;spacingRight=4;overflow=hidden;rotatable=0;points=[[0,0.5],[1,0.5]];portConstraint=eastwest;rounded=1;fontColor=#1D3557;" vertex="1" parent="rH6lZKR-5S6QWdBcWnSk-179">
          <mxGeometry y="26" width="160" height="26" as="geometry" />
        </mxCell>
        <mxCell id="rH6lZKR-5S6QWdBcWnSk-350" style="edgeStyle=orthogonalEdgeStyle;rounded=1;orthogonalLoop=1;jettySize=auto;html=1;exitX=0;exitY=0.5;exitDx=0;exitDy=0;entryX=0.5;entryY=0;entryDx=0;entryDy=0;startArrow=none;startFill=0;endArrow=classic;endFill=1;strokeColor=#457B9D;fontColor=#1D3557;labelBackgroundColor=#F1FAEE;" edge="1" parent="rH6lZKR-5S6QWdBcWnSk-179" source="rH6lZKR-5S6QWdBcWnSk-348" target="rH6lZKR-5S6QWdBcWnSk-179">
          <mxGeometry relative="1" as="geometry">
            <mxPoint y="61" as="sourcePoint" />
            <mxPoint x="80" y="-4" as="targetPoint" />
            <Array as="points">
              <mxPoint x="-10" y="65" />
              <mxPoint x="-10" y="-40" />
              <mxPoint x="80" y="-40" />
            </Array>
          </mxGeometry>
        </mxCell>
        <mxCell id="rH6lZKR-5S6QWdBcWnSk-348" value="parent_section" style="text;strokeColor=none;fillColor=none;align=left;verticalAlign=top;spacingLeft=4;spacingRight=4;overflow=hidden;rotatable=0;points=[[0,0.5],[1,0.5]];portConstraint=eastwest;rounded=1;fontColor=#1D3557;" vertex="1" parent="rH6lZKR-5S6QWdBcWnSk-179">
          <mxGeometry y="52" width="160" height="26" as="geometry" />
        </mxCell>
        <mxCell id="rH6lZKR-5S6QWdBcWnSk-344" value="options" style="text;strokeColor=none;fillColor=none;align=left;verticalAlign=top;spacingLeft=4;spacingRight=4;overflow=hidden;rotatable=0;points=[[0,0.5],[1,0.5]];portConstraint=eastwest;rounded=1;fontColor=#1D3557;" vertex="1" parent="rH6lZKR-5S6QWdBcWnSk-179">
          <mxGeometry y="78" width="160" height="26" as="geometry" />
        </mxCell>
        <mxCell id="rH6lZKR-5S6QWdBcWnSk-351" style="edgeStyle=orthogonalEdgeStyle;rounded=1;orthogonalLoop=1;jettySize=auto;html=1;exitX=0;exitY=0.5;exitDx=0;exitDy=0;startArrow=none;startFill=0;endArrow=classic;endFill=1;entryX=0.5;entryY=0;entryDx=0;entryDy=0;strokeColor=#457B9D;fontColor=#1D3557;labelBackgroundColor=#F1FAEE;" edge="1" parent="rH6lZKR-5S6QWdBcWnSk-179" source="rH6lZKR-5S6QWdBcWnSk-181" target="rH6lZKR-5S6QWdBcWnSk-179">
          <mxGeometry relative="1" as="geometry">
            <mxPoint x="80" y="-4" as="targetPoint" />
            <mxPoint y="35" as="sourcePoint" />
            <Array as="points">
              <mxPoint x="-20" y="39" />
              <mxPoint x="-20" y="-24" />
              <mxPoint x="80" y="-24" />
            </Array>
          </mxGeometry>
        </mxCell>
        <mxCell id="rH6lZKR-5S6QWdBcWnSk-221" style="edgeStyle=orthogonalEdgeStyle;rounded=1;orthogonalLoop=1;jettySize=auto;html=1;exitX=1;exitY=0.5;exitDx=0;exitDy=0;startArrow=none;startFill=0;endArrow=classic;endFill=1;entryX=0.5;entryY=0;entryDx=0;entryDy=0;strokeColor=#457B9D;fontColor=#1D3557;labelBackgroundColor=#F1FAEE;" edge="1" parent="WIyWlLk6GJQsqaUBKTNV-1" source="rH6lZKR-5S6QWdBcWnSk-43" target="rH6lZKR-5S6QWdBcWnSk-179">
          <mxGeometry relative="1" as="geometry">
            <mxPoint x="942.05" y="973" as="targetPoint" />
            <Array as="points">
              <mxPoint x="942.05" y="912" />
              <mxPoint x="942.05" y="1037" />
              <mxPoint x="1185.05" y="1037" />
              <mxPoint x="1185.05" y="627" />
              <mxPoint x="1335.05" y="627" />
              <mxPoint x="1335.05" y="467" />
              <mxPoint x="1245.05" y="467" />
            </Array>
          </mxGeometry>
        </mxCell>
        <mxCell id="rH6lZKR-5S6QWdBcWnSk-222" style="edgeStyle=orthogonalEdgeStyle;rounded=1;orthogonalLoop=1;jettySize=auto;html=1;exitX=1;exitY=0.5;exitDx=0;exitDy=0;entryX=0.5;entryY=0;entryDx=0;entryDy=0;startArrow=none;startFill=0;endArrow=classic;endFill=1;strokeColor=#457B9D;fontColor=#1D3557;labelBackgroundColor=#F1FAEE;" edge="1" parent="WIyWlLk6GJQsqaUBKTNV-1" source="rH6lZKR-5S6QWdBcWnSk-42" target="rH6lZKR-5S6QWdBcWnSk-179">
          <mxGeometry relative="1" as="geometry">
            <Array as="points">
              <mxPoint x="1162.05" y="886" />
              <mxPoint x="1162.05" y="627" />
              <mxPoint x="1135.05" y="627" />
              <mxPoint x="1135.05" y="497" />
              <mxPoint x="1245.05" y="497" />
            </Array>
          </mxGeometry>
        </mxCell>
        <mxCell id="rH6lZKR-5S6QWdBcWnSk-223" style="edgeStyle=orthogonalEdgeStyle;rounded=1;orthogonalLoop=1;jettySize=auto;html=1;exitX=0;exitY=0.5;exitDx=0;exitDy=0;entryX=0.5;entryY=0;entryDx=0;entryDy=0;startArrow=none;startFill=0;endArrow=classic;endFill=1;strokeColor=#457B9D;fontColor=#1D3557;labelBackgroundColor=#F1FAEE;" edge="1" parent="WIyWlLk6GJQsqaUBKTNV-1" source="rH6lZKR-5S6QWdBcWnSk-165" target="rH6lZKR-5S6QWdBcWnSk-179">
          <mxGeometry relative="1" as="geometry">
            <Array as="points">
              <mxPoint x="135.05" y="380" />
              <mxPoint x="135.05" y="457" />
              <mxPoint x="1245.05" y="457" />
            </Array>
          </mxGeometry>
        </mxCell>
        <mxCell id="rH6lZKR-5S6QWdBcWnSk-228" value="list" style="swimlane;fontStyle=0;childLayout=stackLayout;horizontal=1;startSize=26;fillColor=#cdeb8b;horizontalStack=0;resizeParent=1;resizeParentMax=0;resizeLast=0;collapsible=1;marginBottom=0;rounded=1;strokeColor=#36393d;" vertex="1" parent="WIyWlLk6GJQsqaUBKTNV-1">
          <mxGeometry x="742.05" y="359" width="163" height="78" as="geometry" />
        </mxCell>
        <mxCell id="rH6lZKR-5S6QWdBcWnSk-229" value="title_fa" style="text;strokeColor=none;fillColor=none;align=left;verticalAlign=top;spacingLeft=4;spacingRight=4;overflow=hidden;rotatable=0;points=[[0,0.5],[1,0.5]];portConstraint=eastwest;rounded=1;fontColor=#1D3557;" vertex="1" parent="rH6lZKR-5S6QWdBcWnSk-228">
          <mxGeometry y="26" width="163" height="26" as="geometry" />
        </mxCell>
        <mxCell id="rH6lZKR-5S6QWdBcWnSk-230" value="products" style="text;strokeColor=none;fillColor=none;align=left;verticalAlign=top;spacingLeft=4;spacingRight=4;overflow=hidden;rotatable=0;points=[[0,0.5],[1,0.5]];portConstraint=eastwest;rounded=1;fontColor=#1D3557;" vertex="1" parent="rH6lZKR-5S6QWdBcWnSk-228">
          <mxGeometry y="52" width="163" height="26" as="geometry" />
        </mxCell>
        <mxCell id="rH6lZKR-5S6QWdBcWnSk-232" style="edgeStyle=orthogonalEdgeStyle;rounded=1;orthogonalLoop=1;jettySize=auto;html=1;exitX=1;exitY=0.5;exitDx=0;exitDy=0;entryX=0.5;entryY=0;entryDx=0;entryDy=0;startArrow=none;startFill=0;endArrow=classic;endFill=1;strokeColor=#457B9D;fontColor=#1D3557;labelBackgroundColor=#F1FAEE;" edge="1" parent="WIyWlLk6GJQsqaUBKTNV-1" source="rH6lZKR-5S6QWdBcWnSk-79" target="rH6lZKR-5S6QWdBcWnSk-228">
          <mxGeometry relative="1" as="geometry">
            <Array as="points">
              <mxPoint x="725.05" y="328" />
              <mxPoint x="725.05" y="347" />
              <mxPoint x="823.05" y="347" />
            </Array>
          </mxGeometry>
        </mxCell>
        <mxCell id="rH6lZKR-5S6QWdBcWnSk-236" style="edgeStyle=orthogonalEdgeStyle;rounded=1;orthogonalLoop=1;jettySize=auto;html=1;exitX=0;exitY=0.5;exitDx=0;exitDy=0;entryX=0.5;entryY=0;entryDx=0;entryDy=0;startArrow=none;startFill=0;endArrow=classic;endFill=1;strokeColor=#457B9D;fontColor=#1D3557;labelBackgroundColor=#F1FAEE;" edge="1" parent="WIyWlLk6GJQsqaUBKTNV-1" source="AX2P9v-LNy21JHfI5INp-17" target="AX2P9v-LNy21JHfI5INp-30">
          <mxGeometry relative="1" as="geometry">
            <Array as="points">
              <mxPoint x="315.05" y="916" />
              <mxPoint x="315.05" y="897" />
              <mxPoint x="305.05" y="897" />
              <mxPoint x="305.05" y="797" />
              <mxPoint x="135.05" y="797" />
              <mxPoint x="135.05" y="507" />
              <mxPoint x="422.05" y="507" />
            </Array>
          </mxGeometry>
        </mxCell>
        <mxCell id="rH6lZKR-5S6QWdBcWnSk-238" value="comment_rating" style="swimlane;fontStyle=0;childLayout=stackLayout;horizontal=1;startSize=26;fillColor=#cdeb8b;horizontalStack=0;resizeParent=1;resizeParentMax=0;resizeLast=0;collapsible=1;marginBottom=0;strokeColor=#36393d;rounded=1;" vertex="1" parent="WIyWlLk6GJQsqaUBKTNV-1">
          <mxGeometry x="345.05" y="997" width="157" height="104" as="geometry" />
        </mxCell>
        <mxCell id="rH6lZKR-5S6QWdBcWnSk-239" value="amount" style="text;strokeColor=none;fillColor=none;align=left;verticalAlign=top;spacingLeft=4;spacingRight=4;overflow=hidden;rotatable=0;points=[[0,0.5],[1,0.5]];portConstraint=eastwest;rounded=1;fontColor=#1D3557;" vertex="1" parent="rH6lZKR-5S6QWdBcWnSk-238">
          <mxGeometry y="26" width="157" height="26" as="geometry" />
        </mxCell>
        <mxCell id="rH6lZKR-5S6QWdBcWnSk-240" value="comment" style="text;strokeColor=none;fillColor=none;align=left;verticalAlign=top;spacingLeft=4;spacingRight=4;overflow=hidden;rotatable=0;points=[[0,0.5],[1,0.5]];portConstraint=eastwest;rounded=1;fontColor=#1D3557;" vertex="1" parent="rH6lZKR-5S6QWdBcWnSk-238">
          <mxGeometry y="52" width="157" height="26" as="geometry" />
        </mxCell>
        <mxCell id="rH6lZKR-5S6QWdBcWnSk-241" value="rating" style="text;strokeColor=none;fillColor=none;align=left;verticalAlign=top;spacingLeft=4;spacingRight=4;overflow=hidden;rotatable=0;points=[[0,0.5],[1,0.5]];portConstraint=eastwest;rounded=1;fontColor=#1D3557;" vertex="1" parent="rH6lZKR-5S6QWdBcWnSk-238">
          <mxGeometry y="78" width="157" height="26" as="geometry" />
        </mxCell>
        <mxCell id="rH6lZKR-5S6QWdBcWnSk-243" style="edgeStyle=orthogonalEdgeStyle;rounded=1;orthogonalLoop=1;jettySize=auto;html=1;entryX=0.5;entryY=0;entryDx=0;entryDy=0;startArrow=none;startFill=0;endArrow=classic;endFill=1;exitX=0;exitY=0.5;exitDx=0;exitDy=0;strokeColor=#457B9D;fontColor=#1D3557;labelBackgroundColor=#F1FAEE;" edge="1" parent="WIyWlLk6GJQsqaUBKTNV-1" source="rH6lZKR-5S6QWdBcWnSk-242" target="AX2P9v-LNy21JHfI5INp-6">
          <mxGeometry relative="1" as="geometry">
            <mxPoint x="275.05" y="947" as="sourcePoint" />
            <Array as="points">
              <mxPoint x="105.05" y="942" />
              <mxPoint x="105.05" y="67" />
              <mxPoint x="622.05" y="67" />
            </Array>
          </mxGeometry>
        </mxCell>
        <mxCell id="rH6lZKR-5S6QWdBcWnSk-244" style="edgeStyle=orthogonalEdgeStyle;rounded=1;orthogonalLoop=1;jettySize=auto;html=1;entryX=0.5;entryY=0;entryDx=0;entryDy=0;startArrow=none;startFill=0;endArrow=classic;endFill=1;exitX=0;exitY=0.5;exitDx=0;exitDy=0;strokeColor=#457B9D;fontColor=#1D3557;labelBackgroundColor=#F1FAEE;" edge="1" parent="WIyWlLk6GJQsqaUBKTNV-1" source="rH6lZKR-5S6QWdBcWnSk-237" target="rH6lZKR-5S6QWdBcWnSk-238">
          <mxGeometry relative="1" as="geometry">
            <mxPoint x="255.05" y="897" as="sourcePoint" />
            <Array as="points">
              <mxPoint x="325.05" y="864" />
              <mxPoint x="325.05" y="1117" />
              <mxPoint x="535.05" y="1117" />
              <mxPoint x="535.05" y="977" />
              <mxPoint x="423.05" y="977" />
            </Array>
          </mxGeometry>
        </mxCell>
        <mxCell id="rH6lZKR-5S6QWdBcWnSk-247" value="rating" style="swimlane;fontStyle=0;childLayout=stackLayout;horizontal=1;startSize=26;fillColor=#cdeb8b;horizontalStack=0;resizeParent=1;resizeParentMax=0;resizeLast=0;collapsible=1;marginBottom=0;strokeColor=#36393d;rounded=1;" vertex="1" parent="WIyWlLk6GJQsqaUBKTNV-1">
          <mxGeometry x="135.05" y="817" width="157" height="104" as="geometry" />
        </mxCell>
        <mxCell id="rH6lZKR-5S6QWdBcWnSk-248" value="label" style="text;strokeColor=none;fillColor=none;align=left;verticalAlign=top;spacingLeft=4;spacingRight=4;overflow=hidden;rotatable=0;points=[[0,0.5],[1,0.5]];portConstraint=eastwest;rounded=1;fontColor=#1D3557;" vertex="1" parent="rH6lZKR-5S6QWdBcWnSk-247">
          <mxGeometry y="26" width="157" height="26" as="geometry" />
        </mxCell>
        <mxCell id="rH6lZKR-5S6QWdBcWnSk-252" value="category" style="text;strokeColor=none;fillColor=none;align=left;verticalAlign=top;spacingLeft=4;spacingRight=4;overflow=hidden;rotatable=0;points=[[0,0.5],[1,0.5]];portConstraint=eastwest;rounded=1;fontColor=#1D3557;" vertex="1" parent="rH6lZKR-5S6QWdBcWnSk-247">
          <mxGeometry y="52" width="157" height="26" as="geometry" />
        </mxCell>
        <mxCell id="rH6lZKR-5S6QWdBcWnSk-258" value="comment_ratings" style="text;strokeColor=none;fillColor=none;align=left;verticalAlign=top;spacingLeft=4;spacingRight=4;overflow=hidden;rotatable=0;points=[[0,0.5],[1,0.5]];portConstraint=eastwest;rounded=1;fontColor=#1D3557;" vertex="1" parent="rH6lZKR-5S6QWdBcWnSk-247">
          <mxGeometry y="78" width="157" height="26" as="geometry" />
        </mxCell>
        <mxCell id="rH6lZKR-5S6QWdBcWnSk-253" style="edgeStyle=orthogonalEdgeStyle;rounded=1;orthogonalLoop=1;jettySize=auto;html=1;entryX=0.5;entryY=0;entryDx=0;entryDy=0;startArrow=none;startFill=0;endArrow=classic;endFill=1;exitX=0;exitY=0.5;exitDx=0;exitDy=0;strokeColor=#457B9D;fontColor=#1D3557;labelBackgroundColor=#F1FAEE;" edge="1" parent="WIyWlLk6GJQsqaUBKTNV-1" source="rH6lZKR-5S6QWdBcWnSk-252" target="AX2P9v-LNy21JHfI5INp-10">
          <mxGeometry relative="1" as="geometry">
            <mxPoint x="135.05" y="1067" as="sourcePoint" />
            <mxPoint x="1042.05" y="740" as="targetPoint" />
            <Array as="points">
              <mxPoint x="115.25" y="882" />
              <mxPoint x="115.25" y="1142" />
              <mxPoint x="1175.25" y="1142" />
              <mxPoint x="1175.25" y="737" />
              <mxPoint x="1042.25" y="737" />
            </Array>
          </mxGeometry>
        </mxCell>
        <mxCell id="rH6lZKR-5S6QWdBcWnSk-254" style="edgeStyle=orthogonalEdgeStyle;rounded=1;orthogonalLoop=1;jettySize=auto;html=1;exitX=0;exitY=0.5;exitDx=0;exitDy=0;entryX=0.5;entryY=0;entryDx=0;entryDy=0;startArrow=none;startFill=0;endArrow=classic;endFill=1;strokeColor=#457B9D;fontColor=#1D3557;labelBackgroundColor=#F1FAEE;" edge="1" parent="WIyWlLk6GJQsqaUBKTNV-1" source="rH6lZKR-5S6QWdBcWnSk-241" target="rH6lZKR-5S6QWdBcWnSk-247">
          <mxGeometry relative="1" as="geometry">
            <Array as="points">
              <mxPoint x="315.05" y="1088" />
              <mxPoint x="315.05" y="927" />
              <mxPoint x="125.05" y="927" />
              <mxPoint x="125.05" y="807" />
              <mxPoint x="214.05" y="807" />
            </Array>
          </mxGeometry>
        </mxCell>
        <mxCell id="rH6lZKR-5S6QWdBcWnSk-257" style="edgeStyle=orthogonalEdgeStyle;rounded=1;orthogonalLoop=1;jettySize=auto;html=1;exitX=0;exitY=0.5;exitDx=0;exitDy=0;entryX=0.5;entryY=0;entryDx=0;entryDy=0;startArrow=none;startFill=0;endArrow=classic;endFill=1;strokeColor=#457B9D;fontColor=#1D3557;labelBackgroundColor=#F1FAEE;" edge="1" parent="WIyWlLk6GJQsqaUBKTNV-1" source="rH6lZKR-5S6QWdBcWnSk-240" target="AX2P9v-LNy21JHfI5INp-14">
          <mxGeometry relative="1" as="geometry">
            <Array as="points">
              <mxPoint x="335.05" y="1062" />
              <mxPoint x="335.05" y="807" />
              <mxPoint x="325.05" y="807" />
              <mxPoint x="325.05" y="737" />
              <mxPoint x="422.05" y="737" />
            </Array>
          </mxGeometry>
        </mxCell>
        <mxCell id="rH6lZKR-5S6QWdBcWnSk-259" style="edgeStyle=orthogonalEdgeStyle;rounded=1;orthogonalLoop=1;jettySize=auto;html=1;exitX=1;exitY=0.5;exitDx=0;exitDy=0;entryX=0.5;entryY=0;entryDx=0;entryDy=0;startArrow=none;startFill=0;endArrow=classic;endFill=1;strokeColor=#457B9D;fontColor=#1D3557;labelBackgroundColor=#F1FAEE;" edge="1" parent="WIyWlLk6GJQsqaUBKTNV-1" source="rH6lZKR-5S6QWdBcWnSk-258" target="rH6lZKR-5S6QWdBcWnSk-238">
          <mxGeometry relative="1" as="geometry">
            <mxPoint x="289.05" y="1086.0000000000002" as="sourcePoint" />
            <mxPoint x="620.55" y="1007" as="targetPoint" />
            <Array as="points">
              <mxPoint x="305.05" y="1127" />
              <mxPoint x="512.05" y="1127" />
              <mxPoint x="512.05" y="967" />
              <mxPoint x="423.05" y="967" />
            </Array>
          </mxGeometry>
        </mxCell>
        <mxCell id="rH6lZKR-5S6QWdBcWnSk-264" value="role" style="swimlane;fontStyle=0;childLayout=stackLayout;horizontal=1;startSize=26;fillColor=#cdeb8b;horizontalStack=0;resizeParent=1;resizeParentMax=0;resizeLast=0;collapsible=1;marginBottom=0;strokeColor=#36393d;rounded=1;" vertex="1" parent="WIyWlLk6GJQsqaUBKTNV-1">
          <mxGeometry x="145.05" y="107" width="160" height="104" as="geometry" />
        </mxCell>
        <mxCell id="rH6lZKR-5S6QWdBcWnSk-265" value="key" style="text;strokeColor=none;fillColor=none;align=left;verticalAlign=top;spacingLeft=4;spacingRight=4;overflow=hidden;rotatable=0;points=[[0,0.5],[1,0.5]];portConstraint=eastwest;rounded=1;fontColor=#1D3557;" vertex="1" parent="rH6lZKR-5S6QWdBcWnSk-264">
          <mxGeometry y="26" width="160" height="26" as="geometry" />
        </mxCell>
        <mxCell id="rH6lZKR-5S6QWdBcWnSk-266" value="label" style="text;strokeColor=none;fillColor=none;align=left;verticalAlign=top;spacingLeft=4;spacingRight=4;overflow=hidden;rotatable=0;points=[[0,0.5],[1,0.5]];portConstraint=eastwest;rounded=1;fontColor=#1D3557;" vertex="1" parent="rH6lZKR-5S6QWdBcWnSk-264">
          <mxGeometry y="52" width="160" height="26" as="geometry" />
        </mxCell>
        <mxCell id="rH6lZKR-5S6QWdBcWnSk-267" value="users" style="text;strokeColor=none;fillColor=none;align=left;verticalAlign=top;spacingLeft=4;spacingRight=4;overflow=hidden;rotatable=0;points=[[0,0.5],[1,0.5]];portConstraint=eastwest;rounded=1;fontColor=#1D3557;" vertex="1" parent="rH6lZKR-5S6QWdBcWnSk-264">
          <mxGeometry y="78" width="160" height="26" as="geometry" />
        </mxCell>
        <mxCell id="rH6lZKR-5S6QWdBcWnSk-269" style="edgeStyle=orthogonalEdgeStyle;rounded=1;orthogonalLoop=1;jettySize=auto;html=1;exitX=0;exitY=0.5;exitDx=0;exitDy=0;entryX=0.5;entryY=0;entryDx=0;entryDy=0;startArrow=none;startFill=0;endArrow=classic;endFill=1;strokeColor=#457B9D;fontColor=#1D3557;labelBackgroundColor=#F1FAEE;" edge="1" parent="WIyWlLk6GJQsqaUBKTNV-1" source="rH6lZKR-5S6QWdBcWnSk-268" target="rH6lZKR-5S6QWdBcWnSk-264">
          <mxGeometry relative="1" as="geometry">
            <Array as="points">
              <mxPoint x="535.05" y="380" />
              <mxPoint x="535.05" y="487" />
              <mxPoint x="115.05" y="487" />
              <mxPoint x="115.05" y="87" />
              <mxPoint x="225.05" y="87" />
            </Array>
          </mxGeometry>
        </mxCell>
        <mxCell id="rH6lZKR-5S6QWdBcWnSk-270" style="edgeStyle=orthogonalEdgeStyle;rounded=1;orthogonalLoop=1;jettySize=auto;html=1;exitX=0;exitY=0.5;exitDx=0;exitDy=0;entryX=0.5;entryY=0;entryDx=0;entryDy=0;startArrow=none;startFill=0;endArrow=classic;endFill=1;strokeColor=#457B9D;fontColor=#1D3557;labelBackgroundColor=#F1FAEE;" edge="1" parent="WIyWlLk6GJQsqaUBKTNV-1" source="rH6lZKR-5S6QWdBcWnSk-267" target="AX2P9v-LNy21JHfI5INp-6">
          <mxGeometry relative="1" as="geometry">
            <Array as="points">
              <mxPoint x="135.05" y="198" />
              <mxPoint x="135.05" y="57" />
              <mxPoint x="622.05" y="57" />
            </Array>
          </mxGeometry>
        </mxCell>
        <mxCell id="rH6lZKR-5S6QWdBcWnSk-277" value="event" style="swimlane;fontStyle=0;childLayout=stackLayout;horizontal=1;startSize=26;fillColor=#cdeb8b;horizontalStack=0;resizeParent=1;resizeParentMax=0;resizeLast=0;collapsible=1;marginBottom=0;rounded=1;strokeColor=#36393d;" vertex="1" parent="WIyWlLk6GJQsqaUBKTNV-1">
          <mxGeometry x="1345.05" y="351" width="160" height="260" as="geometry" />
        </mxCell>
        <mxCell id="rH6lZKR-5S6QWdBcWnSk-281" value="type" style="text;strokeColor=none;fillColor=none;align=left;verticalAlign=top;spacingLeft=4;spacingRight=4;overflow=hidden;rotatable=0;points=[[0,0.5],[1,0.5]];portConstraint=eastwest;rounded=1;fontColor=#1D3557;" vertex="1" parent="rH6lZKR-5S6QWdBcWnSk-277">
          <mxGeometry y="26" width="160" height="26" as="geometry" />
        </mxCell>
        <mxCell id="rH6lZKR-5S6QWdBcWnSk-278" value="target" style="text;strokeColor=none;fillColor=none;align=left;verticalAlign=top;spacingLeft=4;spacingRight=4;overflow=hidden;rotatable=0;points=[[0,0.5],[1,0.5]];portConstraint=eastwest;rounded=1;fontColor=#1D3557;" vertex="1" parent="rH6lZKR-5S6QWdBcWnSk-277">
          <mxGeometry y="52" width="160" height="26" as="geometry" />
        </mxCell>
        <mxCell id="rH6lZKR-5S6QWdBcWnSk-279" value="amount" style="text;strokeColor=none;fillColor=none;align=left;verticalAlign=top;spacingLeft=4;spacingRight=4;overflow=hidden;rotatable=0;points=[[0,0.5],[1,0.5]];portConstraint=eastwest;rounded=1;fontColor=#1D3557;" vertex="1" parent="rH6lZKR-5S6QWdBcWnSk-277">
          <mxGeometry y="78" width="160" height="26" as="geometry" />
        </mxCell>
        <mxCell id="rH6lZKR-5S6QWdBcWnSk-282" value="amount_type" style="text;strokeColor=none;fillColor=none;align=left;verticalAlign=top;spacingLeft=4;spacingRight=4;overflow=hidden;rotatable=0;points=[[0,0.5],[1,0.5]];portConstraint=eastwest;rounded=1;fontColor=#1D3557;" vertex="1" parent="rH6lZKR-5S6QWdBcWnSk-277">
          <mxGeometry y="104" width="160" height="26" as="geometry" />
        </mxCell>
        <mxCell id="rH6lZKR-5S6QWdBcWnSk-283" value="coupon_code" style="text;strokeColor=none;fillColor=none;align=left;verticalAlign=top;spacingLeft=4;spacingRight=4;overflow=hidden;rotatable=0;points=[[0,0.5],[1,0.5]];portConstraint=eastwest;rounded=1;fontColor=#1D3557;" vertex="1" parent="rH6lZKR-5S6QWdBcWnSk-277">
          <mxGeometry y="130" width="160" height="26" as="geometry" />
        </mxCell>
        <mxCell id="rH6lZKR-5S6QWdBcWnSk-284" value="filters(options)" style="text;strokeColor=none;fillColor=none;align=left;verticalAlign=top;spacingLeft=4;spacingRight=4;overflow=hidden;rotatable=0;points=[[0,0.5],[1,0.5]];portConstraint=eastwest;rounded=1;fontColor=#1D3557;" vertex="1" parent="rH6lZKR-5S6QWdBcWnSk-277">
          <mxGeometry y="156" width="160" height="26" as="geometry" />
        </mxCell>
        <mxCell id="rH6lZKR-5S6QWdBcWnSk-285" value="status" style="text;strokeColor=none;fillColor=none;align=left;verticalAlign=top;spacingLeft=4;spacingRight=4;overflow=hidden;rotatable=0;points=[[0,0.5],[1,0.5]];portConstraint=eastwest;rounded=1;fontColor=#1D3557;" vertex="1" parent="rH6lZKR-5S6QWdBcWnSk-277">
          <mxGeometry y="182" width="160" height="26" as="geometry" />
        </mxCell>
        <mxCell id="rH6lZKR-5S6QWdBcWnSk-286" value="started_at" style="text;strokeColor=none;fillColor=none;align=left;verticalAlign=top;spacingLeft=4;spacingRight=4;overflow=hidden;rotatable=0;points=[[0,0.5],[1,0.5]];portConstraint=eastwest;rounded=1;fontColor=#1D3557;" vertex="1" parent="rH6lZKR-5S6QWdBcWnSk-277">
          <mxGeometry y="208" width="160" height="26" as="geometry" />
        </mxCell>
        <mxCell id="rH6lZKR-5S6QWdBcWnSk-280" value="expired_at" style="text;strokeColor=none;fillColor=none;align=left;verticalAlign=top;spacingLeft=4;spacingRight=4;overflow=hidden;rotatable=0;points=[[0,0.5],[1,0.5]];portConstraint=eastwest;rounded=1;fontColor=#1D3557;" vertex="1" parent="rH6lZKR-5S6QWdBcWnSk-277">
          <mxGeometry y="234" width="160" height="26" as="geometry" />
        </mxCell>
        <mxCell id="rH6lZKR-5S6QWdBcWnSk-296" value="shipping" style="swimlane;fontStyle=0;childLayout=stackLayout;horizontal=1;startSize=26;fillColor=#cdeb8b;horizontalStack=0;resizeParent=1;resizeParentMax=0;resizeLast=0;collapsible=1;marginBottom=0;strokeColor=#36393d;rounded=1;" vertex="1" parent="WIyWlLk6GJQsqaUBKTNV-1">
          <mxGeometry x="1165.05" y="107" width="160" height="182" as="geometry" />
        </mxCell>
        <mxCell id="rH6lZKR-5S6QWdBcWnSk-297" value="provider" style="text;strokeColor=none;fillColor=none;align=left;verticalAlign=top;spacingLeft=4;spacingRight=4;overflow=hidden;rotatable=0;points=[[0,0.5],[1,0.5]];portConstraint=eastwest;rounded=1;fontColor=#1D3557;" vertex="1" parent="rH6lZKR-5S6QWdBcWnSk-296">
          <mxGeometry y="26" width="160" height="26" as="geometry" />
        </mxCell>
        <mxCell id="rH6lZKR-5S6QWdBcWnSk-298" value="tracking_code" style="text;strokeColor=none;fillColor=none;align=left;verticalAlign=top;spacingLeft=4;spacingRight=4;overflow=hidden;rotatable=0;points=[[0,0.5],[1,0.5]];portConstraint=eastwest;rounded=1;fontColor=#1D3557;" vertex="1" parent="rH6lZKR-5S6QWdBcWnSk-296">
          <mxGeometry y="52" width="160" height="26" as="geometry" />
        </mxCell>
        <mxCell id="rH6lZKR-5S6QWdBcWnSk-299" value="weight" style="text;strokeColor=none;fillColor=none;align=left;verticalAlign=top;spacingLeft=4;spacingRight=4;overflow=hidden;rotatable=0;points=[[0,0.5],[1,0.5]];portConstraint=eastwest;rounded=1;fontColor=#1D3557;" vertex="1" parent="rH6lZKR-5S6QWdBcWnSk-296">
          <mxGeometry y="78" width="160" height="26" as="geometry" />
        </mxCell>
        <mxCell id="rH6lZKR-5S6QWdBcWnSk-300" value="total" style="text;strokeColor=none;fillColor=none;align=left;verticalAlign=top;spacingLeft=4;spacingRight=4;overflow=hidden;rotatable=0;points=[[0,0.5],[1,0.5]];portConstraint=eastwest;rounded=1;fontColor=#1D3557;" vertex="1" parent="rH6lZKR-5S6QWdBcWnSk-296">
          <mxGeometry y="104" width="160" height="26" as="geometry" />
        </mxCell>
        <mxCell id="rH6lZKR-5S6QWdBcWnSk-302" value="sent_at" style="text;strokeColor=none;fillColor=none;align=left;verticalAlign=top;spacingLeft=4;spacingRight=4;overflow=hidden;rotatable=0;points=[[0,0.5],[1,0.5]];portConstraint=eastwest;rounded=1;fontColor=#1D3557;" vertex="1" parent="rH6lZKR-5S6QWdBcWnSk-296">
          <mxGeometry y="130" width="160" height="26" as="geometry" />
        </mxCell>
        <mxCell id="rH6lZKR-5S6QWdBcWnSk-303" value="delivered_at" style="text;strokeColor=none;fillColor=none;align=left;verticalAlign=top;spacingLeft=4;spacingRight=4;overflow=hidden;rotatable=0;points=[[0,0.5],[1,0.5]];portConstraint=eastwest;rounded=1;fontColor=#1D3557;" vertex="1" parent="rH6lZKR-5S6QWdBcWnSk-296">
          <mxGeometry y="156" width="160" height="26" as="geometry" />
        </mxCell>
        <mxCell id="rH6lZKR-5S6QWdBcWnSk-311" value="payment" style="swimlane;fontStyle=0;childLayout=stackLayout;horizontal=1;startSize=26;fillColor=#cdeb8b;horizontalStack=0;resizeParent=1;resizeParentMax=0;resizeLast=0;collapsible=1;marginBottom=0;rounded=1;strokeColor=#36393d;" vertex="1" parent="WIyWlLk6GJQsqaUBKTNV-1">
          <mxGeometry x="1165.05" y="315" width="160" height="130" as="geometry" />
        </mxCell>
        <mxCell id="rH6lZKR-5S6QWdBcWnSk-319" value="status" style="text;strokeColor=none;fillColor=none;align=left;verticalAlign=top;spacingLeft=4;spacingRight=4;overflow=hidden;rotatable=0;points=[[0,0.5],[1,0.5]];portConstraint=eastwest;rounded=1;fontColor=#1D3557;" vertex="1" parent="rH6lZKR-5S6QWdBcWnSk-311">
          <mxGeometry y="26" width="160" height="26" as="geometry" />
        </mxCell>
        <mxCell id="rH6lZKR-5S6QWdBcWnSk-312" value="provider" style="text;strokeColor=none;fillColor=none;align=left;verticalAlign=top;spacingLeft=4;spacingRight=4;overflow=hidden;rotatable=0;points=[[0,0.5],[1,0.5]];portConstraint=eastwest;rounded=1;fontColor=#1D3557;" vertex="1" parent="rH6lZKR-5S6QWdBcWnSk-311">
          <mxGeometry y="52" width="160" height="26" as="geometry" />
        </mxCell>
        <mxCell id="rH6lZKR-5S6QWdBcWnSk-313" value="tracking_code" style="text;strokeColor=none;fillColor=none;align=left;verticalAlign=top;spacingLeft=4;spacingRight=4;overflow=hidden;rotatable=0;points=[[0,0.5],[1,0.5]];portConstraint=eastwest;rounded=1;fontColor=#1D3557;" vertex="1" parent="rH6lZKR-5S6QWdBcWnSk-311">
          <mxGeometry y="78" width="160" height="26" as="geometry" />
        </mxCell>
        <mxCell id="rH6lZKR-5S6QWdBcWnSk-315" value="total" style="text;strokeColor=none;fillColor=none;align=left;verticalAlign=top;spacingLeft=4;spacingRight=4;overflow=hidden;rotatable=0;points=[[0,0.5],[1,0.5]];portConstraint=eastwest;rounded=1;fontColor=#1D3557;" vertex="1" parent="rH6lZKR-5S6QWdBcWnSk-311">
          <mxGeometry y="104" width="160" height="26" as="geometry" />
        </mxCell>
        <mxCell id="rH6lZKR-5S6QWdBcWnSk-326" style="edgeStyle=orthogonalEdgeStyle;rounded=1;orthogonalLoop=1;jettySize=auto;html=1;exitX=1;exitY=0.5;exitDx=0;exitDy=0;entryX=0.5;entryY=0;entryDx=0;entryDy=0;startArrow=none;startFill=0;endArrow=classic;endFill=1;strokeColor=#457B9D;fontColor=#1D3557;labelBackgroundColor=#F1FAEE;" edge="1" parent="WIyWlLk6GJQsqaUBKTNV-1" source="rH6lZKR-5S6QWdBcWnSk-324" target="rH6lZKR-5S6QWdBcWnSk-296">
          <mxGeometry relative="1" as="geometry">
            <Array as="points">
              <mxPoint x="1142.05" y="302" />
              <mxPoint x="1142.05" y="87" />
              <mxPoint x="1245.05" y="87" />
            </Array>
          </mxGeometry>
        </mxCell>
        <mxCell id="rH6lZKR-5S6QWdBcWnSk-327" style="edgeStyle=orthogonalEdgeStyle;rounded=1;orthogonalLoop=1;jettySize=auto;html=1;exitX=1;exitY=0.5;exitDx=0;exitDy=0;entryX=0.5;entryY=0;entryDx=0;entryDy=0;startArrow=none;startFill=0;endArrow=classic;endFill=1;strokeColor=#457B9D;fontColor=#1D3557;labelBackgroundColor=#F1FAEE;" edge="1" parent="WIyWlLk6GJQsqaUBKTNV-1" source="rH6lZKR-5S6QWdBcWnSk-325" target="rH6lZKR-5S6QWdBcWnSk-311">
          <mxGeometry relative="1" as="geometry">
            <Array as="points">
              <mxPoint x="1155.05" y="276" />
              <mxPoint x="1155.05" y="297" />
              <mxPoint x="1245.05" y="297" />
            </Array>
          </mxGeometry>
        </mxCell>
        <mxCell id="rH6lZKR-5S6QWdBcWnSk-341" style="edgeStyle=orthogonalEdgeStyle;rounded=1;orthogonalLoop=1;jettySize=auto;html=1;exitX=1;exitY=0.5;exitDx=0;exitDy=0;entryX=0.5;entryY=0;entryDx=0;entryDy=0;startArrow=none;startFill=0;endArrow=classic;endFill=1;strokeColor=#457B9D;fontColor=#1D3557;labelBackgroundColor=#F1FAEE;" edge="1" parent="WIyWlLk6GJQsqaUBKTNV-1" source="AX2P9v-LNy21JHfI5INp-28" target="rH6lZKR-5S6QWdBcWnSk-277">
          <mxGeometry relative="1" as="geometry">
            <Array as="points">
              <mxPoint x="1135" y="250" />
              <mxPoint x="1135" y="207" />
              <mxPoint x="1155" y="207" />
              <mxPoint x="1155" y="67" />
              <mxPoint x="1335" y="67" />
              <mxPoint x="1335" y="300" />
              <mxPoint x="1425" y="300" />
            </Array>
          </mxGeometry>
        </mxCell>
        <mxCell id="rH6lZKR-5S6QWdBcWnSk-357" value="logs" style="swimlane;fontStyle=0;childLayout=stackLayout;horizontal=1;startSize=26;fillColor=#ffcccc;horizontalStack=0;resizeParent=1;resizeParentMax=0;resizeLast=0;collapsible=1;marginBottom=0;strokeColor=#36393d;rounded=1;" vertex="1" parent="WIyWlLk6GJQsqaUBKTNV-1">
          <mxGeometry x="1208.25" y="743" width="160" height="104" as="geometry" />
        </mxCell>
        <mxCell id="rH6lZKR-5S6QWdBcWnSk-358" value="text" style="text;strokeColor=none;fillColor=none;align=left;verticalAlign=top;spacingLeft=4;spacingRight=4;overflow=hidden;rotatable=0;points=[[0,0.5],[1,0.5]];portConstraint=eastwest;rounded=1;fontColor=#1D3557;" vertex="1" parent="rH6lZKR-5S6QWdBcWnSk-357">
          <mxGeometry y="26" width="160" height="26" as="geometry" />
        </mxCell>
        <mxCell id="rH6lZKR-5S6QWdBcWnSk-359" value="related" style="text;strokeColor=none;fillColor=none;align=left;verticalAlign=top;spacingLeft=4;spacingRight=4;overflow=hidden;rotatable=0;points=[[0,0.5],[1,0.5]];portConstraint=eastwest;rounded=1;fontColor=#1D3557;" vertex="1" parent="rH6lZKR-5S6QWdBcWnSk-357">
          <mxGeometry y="52" width="160" height="26" as="geometry" />
        </mxCell>
        <mxCell id="rH6lZKR-5S6QWdBcWnSk-360" value="user" style="text;strokeColor=none;fillColor=none;align=left;verticalAlign=top;spacingLeft=4;spacingRight=4;overflow=hidden;rotatable=0;points=[[0,0.5],[1,0.5]];portConstraint=eastwest;rounded=1;fontColor=#1D3557;" vertex="1" parent="rH6lZKR-5S6QWdBcWnSk-357">
          <mxGeometry y="78" width="160" height="26" as="geometry" />
        </mxCell>
        <mxCell id="rH6lZKR-5S6QWdBcWnSk-361" value="option" style="swimlane;fontStyle=0;childLayout=stackLayout;horizontal=1;startSize=26;fillColor=#ffcccc;horizontalStack=0;resizeParent=1;resizeParentMax=0;resizeLast=0;collapsible=1;marginBottom=0;strokeColor=#36393d;rounded=1;" vertex="1" parent="WIyWlLk6GJQsqaUBKTNV-1">
          <mxGeometry x="1388.25" y="743" width="160" height="104" as="geometry" />
        </mxCell>
        <mxCell id="rH6lZKR-5S6QWdBcWnSk-362" value="name" style="text;strokeColor=none;fillColor=none;align=left;verticalAlign=top;spacingLeft=4;spacingRight=4;overflow=hidden;rotatable=0;points=[[0,0.5],[1,0.5]];portConstraint=eastwest;rounded=1;fontColor=#1D3557;" vertex="1" parent="rH6lZKR-5S6QWdBcWnSk-361">
          <mxGeometry y="26" width="160" height="26" as="geometry" />
        </mxCell>
        <mxCell id="rH6lZKR-5S6QWdBcWnSk-363" value="related" style="text;strokeColor=none;fillColor=none;align=left;verticalAlign=top;spacingLeft=4;spacingRight=4;overflow=hidden;rotatable=0;points=[[0,0.5],[1,0.5]];portConstraint=eastwest;rounded=1;fontColor=#1D3557;" vertex="1" parent="rH6lZKR-5S6QWdBcWnSk-361">
          <mxGeometry y="52" width="160" height="26" as="geometry" />
        </mxCell>
        <mxCell id="rH6lZKR-5S6QWdBcWnSk-364" value="value" style="text;strokeColor=none;fillColor=none;align=left;verticalAlign=top;spacingLeft=4;spacingRight=4;overflow=hidden;rotatable=0;points=[[0,0.5],[1,0.5]];portConstraint=eastwest;rounded=1;fontColor=#1D3557;" vertex="1" parent="rH6lZKR-5S6QWdBcWnSk-361">
          <mxGeometry y="78" width="160" height="26" as="geometry" />
        </mxCell>
      </root>
    </mxGraphModel>
  </diagram>
</mxfile>
